<svg xmlns="http://www.w3.org/2000/svg" viewBox="0 0 662.3094010767585 300" width="662.3094010767585" height="300"><rect x="0" y="0" width="662.3094010767585" height="300" fill="white"/><g transform="translate(25 25)"><g><g><line x1="0" y1="35" x2="610" y2="35" stroke="black" stroke-width="2"/><polyline points="600,29.226497308103742 610,35 600,40.773502691896255" fill="none" stroke="black" stroke-width="2" stroke-linecap="square"/></g><g transform="translate(505 0)"><ellipse cx="35" cy="35" rx="34" ry="34" fill="hsl(223, 60%, 80%)" stroke="black" stroke-width="2"/><text x="0" y="0" fill="black" font-family="Arial, Helvetica, sans-serif" font-size="18px" font-weight="normal" font-style="normal" dominant-baseline="middle" text-anchor="middle" transform="translate(35 35)">evt5</text></g><g transform="translate(415 0)"><ellipse cx="35" cy="35" rx="34" ry="34" fill="hsl(174, 60%, 80%)" stroke="black" stroke-width="2"/><text x="0" y="0" fill="black" font-family="Arial, Helvetica, sans-serif" font-size="18px" font-weight="normal" font-style="normal" dominant-baseline="middle" text-anchor="middle" transform="translate(35 35)">evt4</text></g><g transform="translate(295 0)"><ellipse cx="35" cy="35" rx="34" ry="34" fill="hsl(295, 60%, 80%)" stroke="black" stroke-width="2"/><text x="0" y="0" fill="black" font-family="Arial, Helvetica, sans-serif" font-size="18px" font-weight="normal" font-style="normal" dominant-baseline="middle" text-anchor="middle" transform="translate(35 35)">evt3</text></g><g transform="translate(115 0)"><ellipse cx="35" cy="35" rx="34" ry="34" fill="hsl(50, 60%, 80%)" stroke="black" stroke-width="2"/><text x="0" y="0" fill="black" font-family="Arial, Helvetica, sans-serif" font-size="18px" font-weight="normal" font-style="normal" dominant-baseline="middle" text-anchor="middle" transform="translate(35 35)">evt2</text></g><g transform="translate(25 0)"><ellipse cx="35" cy="35" rx="34" ry="34" fill="hsl(80, 60%, 80%)" stroke="black" stroke-width="2"/><text x="0" y="0" fill="black" font-family="Arial, Helvetica, sans-serif" font-size="18px" font-weight="normal" font-style="normal" dominant-baseline="middle" text-anchor="middle" transform="translate(35 35)">evt1</text></g></g><g transform="translate(0 90)"><rect x="1" y="11" width="610.3094010767585" height="48" fill="white" stroke="black" stroke-width="2" rx="0"/><text x="306.15470053837925" y="35" fill="black" dominant-baseline="middle" text-anchor="middle" font-family="Arial, Helvetica, sans-serif" font-size="24px" font-weight="normal" font-style="normal" width="612.3094010767585">map(evt =&gt; (evt.offsetX, evt.offsetY))</text></g><g transform="translate(0 180)"><g><line x1="0" y1="35" x2="610" y2="35" stroke="black" stroke-width="2"/><polyline points="600,29.226497308103742 610,35 600,40.773502691896255" fill="none" stroke="black" stroke-width="2" stroke-linecap="square"/></g><g transform="translate(505 0)"><ellipse cx="35" cy="35" rx="34" ry="34" fill="hsl(332, 60%, 80%)" stroke="black" stroke-width="2"/><text x="0" y="0" fill="black" font-family="Arial, Helvetica, sans-serif" font-size="18px" font-weight="normal" font-style="normal" dominant-baseline="middle" text-anchor="middle" transform="translate(35 35)">(14,43)</text></g><g transform="translate(415 0)"><ellipse cx="35" cy="35" rx="34" ry="34" fill="hsl(3, 60%, 80%)" stroke="black" stroke-width="2"/><text x="0" y="0" fill="black" font-family="Arial, Helvetica, sans-serif" font-size="18px" font-weight="normal" font-style="normal" dominant-baseline="middle" text-anchor="middle" transform="translate(35 35)">(5,1)</text></g><g transform="translate(295 0)"><ellipse cx="35" cy="35" rx="34" ry="34" fill="hsl(347, 60%, 80%)" stroke="black" stroke-width="2"/><text x="0" y="0" fill="black" font-family="Arial, Helvetica, sans-serif" font-size="18px" font-weight="normal" font-style="normal" dominant-baseline="middle" text-anchor="middle" transform="translate(35 35)">(15,23)</text></g><g transform="translate(115 0)"><ellipse cx="35" cy="35" rx="34" ry="34" fill="hsl(229, 60%, 80%)" stroke="black" stroke-width="2"/><text x="0" y="0" fill="black" font-family="Arial, Helvetica, sans-serif" font-size="18px" font-weight="normal" font-style="normal" dominant-baseline="middle" text-anchor="middle" transform="translate(35 35)">(14,2)</text></g><g transform="translate(25 0)"><ellipse cx="35" cy="35" rx="34" ry="34" fill="hsl(191, 60%, 80%)" stroke="black" stroke-width="2"/><text x="0" y="0" fill="black" font-family="Arial, Helvetica, sans-serif" font-size="18px" font-weight="normal" font-style="normal" dominant-baseline="middle" text-anchor="middle" transform="translate(35 35)">(10,10)</text></g></g></g></svg>