<svg xmlns="http://www.w3.org/2000/svg" viewBox="0 0 742.3094010767585 450" width="742.3094010767585" height="450"><rect x="0" y="0" width="742.3094010767585" height="450" fill="white"/><g transform="translate(25 25)"><g><g><line x1="0" y1="45" x2="690" y2="45" stroke="black" stroke-width="2"/><polyline points="680,39.226497308103745 690,45 680,50.773502691896255" fill="none" stroke="black" stroke-width="2" stroke-linecap="square"/></g><g transform="translate(555 0)"><ellipse cx="45" cy="45" rx="44" ry="44" fill="hsl(332, 60%, 80%)" stroke="black" stroke-width="2"/><text x="0" y="0" fill="black" font-family="Arial, Helvetica, sans-serif" font-size="18px" font-weight="normal" font-style="normal" dominant-baseline="middle" text-anchor="middle" transform="translate(45 45)">(14,43)</text></g><g transform="translate(435 0)"><ellipse cx="45" cy="45" rx="44" ry="44" fill="hsl(3, 60%, 80%)" stroke="black" stroke-width="2"/><text x="0" y="0" fill="black" font-family="Arial, Helvetica, sans-serif" font-size="18px" font-weight="normal" font-style="normal" dominant-baseline="middle" text-anchor="middle" transform="translate(45 45)">(5,1)</text></g><g transform="translate(315 0)"><ellipse cx="45" cy="45" rx="44" ry="44" fill="hsl(347, 60%, 80%)" stroke="black" stroke-width="2"/><text x="0" y="0" fill="black" font-family="Arial, Helvetica, sans-serif" font-size="18px" font-weight="normal" font-style="normal" dominant-baseline="middle" text-anchor="middle" transform="translate(45 45)">(15,23)</text></g><g transform="translate(135 0)"><ellipse cx="45" cy="45" rx="44" ry="44" fill="hsl(229, 60%, 80%)" stroke="black" stroke-width="2"/><text x="0" y="0" fill="black" font-family="Arial, Helvetica, sans-serif" font-size="18px" font-weight="normal" font-style="normal" dominant-baseline="middle" text-anchor="middle" transform="translate(45 45)">(14,2)</text></g><g transform="translate(15 0)"><ellipse cx="45" cy="45" rx="44" ry="44" fill="hsl(191, 60%, 80%)" stroke="black" stroke-width="2"/><text x="0" y="0" fill="black" font-family="Arial, Helvetica, sans-serif" font-size="18px" font-weight="normal" font-style="normal" dominant-baseline="middle" text-anchor="middle" transform="translate(45 45)">(10,10)</text></g></g><g transform="translate(0 110)"><g><line x1="0" y1="45" x2="690" y2="45" stroke="black" stroke-width="2"/><polyline points="680,39.226497308103745 690,45 680,50.773502691896255" fill="none" stroke="black" stroke-width="2" stroke-linecap="square"/></g><g transform="translate(555 0)"><ellipse cx="45" cy="45" rx="44" ry="44" fill="hsl(170, 60%, 80%)" stroke="black" stroke-width="2"/><text x="0" y="0" fill="black" font-family="Arial, Helvetica, sans-serif" font-size="18px" font-weight="normal" font-style="normal" dominant-baseline="middle" text-anchor="middle" transform="translate(45 45)">5</text></g><g transform="translate(435 0)"><ellipse cx="45" cy="45" rx="44" ry="44" fill="hsl(117, 60%, 80%)" stroke="black" stroke-width="2"/><text x="0" y="0" fill="black" font-family="Arial, Helvetica, sans-serif" font-size="18px" font-weight="normal" font-style="normal" dominant-baseline="middle" text-anchor="middle" transform="translate(45 45)">4</text></g><g transform="translate(315 0)"><ellipse cx="45" cy="45" rx="44" ry="44" fill="hsl(147, 60%, 80%)" stroke="black" stroke-width="2"/><text x="0" y="0" fill="black" font-family="Arial, Helvetica, sans-serif" font-size="18px" font-weight="normal" font-style="normal" dominant-baseline="middle" text-anchor="middle" transform="translate(45 45)">3</text></g><g transform="translate(135 0)"><ellipse cx="45" cy="45" rx="44" ry="44" fill="hsl(206, 60%, 80%)" stroke="black" stroke-width="2"/><text x="0" y="0" fill="black" font-family="Arial, Helvetica, sans-serif" font-size="18px" font-weight="normal" font-style="normal" dominant-baseline="middle" text-anchor="middle" transform="translate(45 45)">2</text></g><g transform="translate(15 0)"><ellipse cx="45" cy="45" rx="44" ry="44" fill="hsl(35, 60%, 80%)" stroke="black" stroke-width="2"/><text x="0" y="0" fill="black" font-family="Arial, Helvetica, sans-serif" font-size="18px" font-weight="normal" font-style="normal" dominant-baseline="middle" text-anchor="middle" transform="translate(45 45)">1</text></g></g><g transform="translate(0 220)"><rect x="1" y="11" width="690.3094010767585" height="48" fill="white" stroke="black" stroke-width="2" rx="0"/><text x="346.15470053837925" y="35" fill="black" dominant-baseline="middle" text-anchor="middle" font-family="Arial, Helvetica, sans-serif" font-size="24px" font-weight="normal" font-style="normal" width="692.3094010767585">zip()</text></g><g transform="translate(0 310)"><g><line x1="0" y1="45" x2="690" y2="45" stroke="black" stroke-width="2"/><polyline points="680,39.226497308103745 690,45 680,50.773502691896255" fill="none" stroke="black" stroke-width="2" stroke-linecap="square"/></g><g transform="translate(555 0)"><ellipse cx="45" cy="45" rx="44" ry="44" fill="hsl(65, 60%, 80%)" stroke="black" stroke-width="2"/><text x="0" y="0" fill="black" font-family="Arial, Helvetica, sans-serif" font-size="18px" font-weight="normal" font-style="normal" dominant-baseline="middle" text-anchor="middle" transform="translate(45 45)">[(14,43),5]</text></g><g transform="translate(435 0)"><ellipse cx="45" cy="45" rx="44" ry="44" fill="hsl(178, 60%, 80%)" stroke="black" stroke-width="2"/><text x="0" y="0" fill="black" font-family="Arial, Helvetica, sans-serif" font-size="18px" font-weight="normal" font-style="normal" dominant-baseline="middle" text-anchor="middle" transform="translate(45 45)">[(5,1),4]</text></g><g transform="translate(315 0)"><ellipse cx="45" cy="45" rx="44" ry="44" fill="hsl(160, 60%, 80%)" stroke="black" stroke-width="2"/><text x="0" y="0" fill="black" font-family="Arial, Helvetica, sans-serif" font-size="18px" font-weight="normal" font-style="normal" dominant-baseline="middle" text-anchor="middle" transform="translate(45 45)">[(15,23),3]</text></g><g transform="translate(135 0)"><ellipse cx="45" cy="45" rx="44" ry="44" fill="hsl(108, 60%, 80%)" stroke="black" stroke-width="2"/><text x="0" y="0" fill="black" font-family="Arial, Helvetica, sans-serif" font-size="18px" font-weight="normal" font-style="normal" dominant-baseline="middle" text-anchor="middle" transform="translate(45 45)">[(14,2),2]</text></g><g transform="translate(15 0)"><ellipse cx="45" cy="45" rx="44" ry="44" fill="hsl(219, 60%, 80%)" stroke="black" stroke-width="2"/><text x="0" y="0" fill="black" font-family="Arial, Helvetica, sans-serif" font-size="18px" font-weight="normal" font-style="normal" dominant-baseline="middle" text-anchor="middle" transform="translate(45 45)">[(10,10),1]</text></g></g></g></svg>