<svg xmlns="http://www.w3.org/2000/svg" viewBox="0 0 596.3094010767585 372" width="596.3094010767585" height="372"><rect x="0" y="0" width="596.3094010767585" height="372" fill="white"/><g transform="translate(25 25)"><g><g><line x1="0" y1="32" x2="544" y2="32" stroke="black" stroke-width="2"/><polyline points="534,26.226497308103742 544,32 534,37.773502691896255" fill="none" stroke="black" stroke-width="2" stroke-linecap="square"/></g><g transform="translate(448 0)"><ellipse cx="32" cy="32" rx="31" ry="31" fill="hsl(243, 60%, 80%)" stroke="black" stroke-width="2"/><text x="0" y="0" fill="black" font-family="Arial, Helvetica, sans-serif" font-size="18px" font-weight="normal" font-style="normal" dominant-baseline="middle" text-anchor="middle" transform="translate(32 32)">_</text></g><g transform="translate(328 0)"><ellipse cx="32" cy="32" rx="31" ry="31" fill="hsl(243, 60%, 80%)" stroke="black" stroke-width="2"/><text x="0" y="0" fill="black" font-family="Arial, Helvetica, sans-serif" font-size="18px" font-weight="normal" font-style="normal" dominant-baseline="middle" text-anchor="middle" transform="translate(32 32)">_</text></g><g transform="translate(208 0)"><ellipse cx="32" cy="32" rx="31" ry="31" fill="hsl(243, 60%, 80%)" stroke="black" stroke-width="2"/><text x="0" y="0" fill="black" font-family="Arial, Helvetica, sans-serif" font-size="18px" font-weight="normal" font-style="normal" dominant-baseline="middle" text-anchor="middle" transform="translate(32 32)">_</text></g><g transform="translate(88 0)"><ellipse cx="32" cy="32" rx="31" ry="31" fill="hsl(243, 60%, 80%)" stroke="black" stroke-width="2"/><text x="0" y="0" fill="black" font-family="Arial, Helvetica, sans-serif" font-size="18px" font-weight="normal" font-style="normal" dominant-baseline="middle" text-anchor="middle" transform="translate(32 32)">_</text></g></g><g transform="translate(0 84)"><g><line x1="0" y1="32" x2="484" y2="32" stroke="black" stroke-width="2"/><polyline points="474,26.226497308103742 484,32 474,37.773502691896255" fill="none" stroke="black" stroke-width="2" stroke-linecap="square"/></g><g transform="translate(388 0)"><ellipse cx="32" cy="32" rx="31" ry="31" fill="hsl(86, 60%, 80%)" stroke="black" stroke-width="2"/><text x="0" y="0" fill="black" font-family="Arial, Helvetica, sans-serif" font-size="18px" font-weight="normal" font-style="normal" dominant-baseline="middle" text-anchor="middle" transform="translate(32 32)">T</text></g><g transform="translate(148 0)"><ellipse cx="32" cy="32" rx="31" ry="31" fill="hsl(46, 60%, 80%)" stroke="black" stroke-width="2"/><text x="0" y="0" fill="black" font-family="Arial, Helvetica, sans-serif" font-size="18px" font-weight="normal" font-style="normal" dominant-baseline="middle" text-anchor="middle" transform="translate(32 32)">F</text></g><g transform="translate(58 0)"><ellipse cx="32" cy="32" rx="31" ry="31" fill="hsl(86, 60%, 80%)" stroke="black" stroke-width="2"/><text x="0" y="0" fill="black" font-family="Arial, Helvetica, sans-serif" font-size="18px" font-weight="normal" font-style="normal" dominant-baseline="middle" text-anchor="middle" transform="translate(32 32)">T</text></g></g><g transform="translate(0 168)"><rect x="1" y="11" width="544.3094010767585" height="48" fill="white" stroke="black" stroke-width="2" rx="0"/><text x="273.15470053837925" y="35" fill="black" dominant-baseline="middle" text-anchor="middle" font-family="Arial, Helvetica, sans-serif" font-size="24px" font-weight="normal" font-style="normal" width="546.3094010767585">withLatestFrom()</text></g><g transform="translate(0 258)"><g><line x1="0" y1="32" x2="544" y2="32" stroke="black" stroke-width="2"/><polyline points="534,26.226497308103742 544,32 534,37.773502691896255" fill="none" stroke="black" stroke-width="2" stroke-linecap="square"/></g><g transform="translate(448 0)"><ellipse cx="32" cy="32" rx="31" ry="31" fill="hsl(123, 60%, 80%)" stroke="black" stroke-width="2"/><text x="0" y="0" fill="black" font-family="Arial, Helvetica, sans-serif" font-size="18px" font-weight="normal" font-style="normal" dominant-baseline="middle" text-anchor="middle" transform="translate(32 32)">[ _, T ]</text></g><g transform="translate(328 0)"><ellipse cx="32" cy="32" rx="31" ry="31" fill="hsl(29, 60%, 80%)" stroke="black" stroke-width="2"/><text x="0" y="0" fill="black" font-family="Arial, Helvetica, sans-serif" font-size="18px" font-weight="normal" font-style="normal" dominant-baseline="middle" text-anchor="middle" transform="translate(32 32)">[ _, F ]</text></g><g transform="translate(208 0)"><ellipse cx="32" cy="32" rx="31" ry="31" fill="hsl(29, 60%, 80%)" stroke="black" stroke-width="2"/><text x="0" y="0" fill="black" font-family="Arial, Helvetica, sans-serif" font-size="18px" font-weight="normal" font-style="normal" dominant-baseline="middle" text-anchor="middle" transform="translate(32 32)">[ _, F ]</text></g><g transform="translate(88 0)"><ellipse cx="32" cy="32" rx="31" ry="31" fill="hsl(123, 60%, 80%)" stroke="black" stroke-width="2"/><text x="0" y="0" fill="black" font-family="Arial, Helvetica, sans-serif" font-size="18px" font-weight="normal" font-style="normal" dominant-baseline="middle" text-anchor="middle" transform="translate(32 32)">[ _, T ]</text></g></g></g></svg>