<svg xmlns="http://www.w3.org/2000/svg" viewBox="0 0 1296.3094010767586 606.2179833262772" width="1296.3094010767586" height="606.2179833262772"><rect x="0" y="0" width="1296.3094010767586" height="606.2179833262772" fill="white"/><g transform="translate(25 25)"><g><text x="0" y="32" fill="black" font-family="Arial, Helvetica, sans-serif" font-size="18px" font-weight="normal" font-style="normal" dominant-baseline="middle">reini$</text><g transform="translate(100 0)"><g><line x1="0" y1="32" x2="784" y2="32" stroke="black" stroke-width="2"/><polyline points="774,26.226497308103742 784,32 774,37.773502691896255" fill="none" stroke="black" stroke-width="2" stroke-linecap="square"/></g><g transform="translate(688 0)"><ellipse cx="32" cy="32" rx="31" ry="31" fill="hsl(333, 60%, 80%)" stroke="black" stroke-width="2"/><text x="0" y="0" fill="black" font-family="Arial, Helvetica, sans-serif" font-size="18px" font-weight="normal" font-style="normal" dominant-baseline="middle" text-anchor="middle" transform="translate(32 32)">""</text></g><g transform="translate(418 0)"><ellipse cx="32" cy="32" rx="31" ry="31" fill="hsl(333, 60%, 80%)" stroke="black" stroke-width="2"/><text x="0" y="0" fill="black" font-family="Arial, Helvetica, sans-serif" font-size="18px" font-weight="normal" font-style="normal" dominant-baseline="middle" text-anchor="middle" transform="translate(32 32)">""</text></g><g transform="translate(88 0)"><ellipse cx="32" cy="32" rx="31" ry="31" fill="hsl(333, 60%, 80%)" stroke="black" stroke-width="2"/><text x="0" y="0" fill="black" font-family="Arial, Helvetica, sans-serif" font-size="18px" font-weight="normal" font-style="normal" dominant-baseline="middle" text-anchor="middle" transform="translate(32 32)">""</text></g></g></g><g transform="translate(0 84)"><rect x="1" y="11" width="1244.3094010767586" height="48" fill="white" stroke="black" stroke-width="2" rx="0"/><text x="623.1547005383793" y="35" fill="black" dominant-baseline="middle" text-anchor="middle" font-family="Arial, Helvetica, sans-serif" font-size="24px" font-weight="normal" font-style="normal" width="1246.3094010767586">map</text></g><g transform="translate(0 182.32235234144323)"><text x="0" y="32" fill="black" font-family="Arial, Helvetica, sans-serif" font-size="18px" font-weight="normal" font-style="normal" dominant-baseline="middle"/><g transform="translate(100 0)"><g><line x1="0" y1="32" x2="784" y2="32" stroke="black" stroke-width="2"/><polyline points="774,26.226497308103742 784,32 774,37.773502691896255" fill="none" stroke="black" stroke-width="2" stroke-linecap="square"/></g><g transform="rotate(18 720 32) translate(720 0)"><g><line x1="0" y1="32" x2="442.5264007257762" y2="32" stroke="black" stroke-width="2"/><polyline points="432.5264007257762,26.226497308103742 442.5264007257762,32 432.5264007257762,37.773502691896255" fill="none" stroke="black" stroke-width="2" stroke-linecap="square"/></g><g transform="translate(346.5264007257762 0)"><ellipse cx="32" cy="32" rx="31" ry="31" fill="hsl(117, 60%, 80%)" stroke="black" stroke-width="2"/><text x="0" y="0" fill="black" font-family="Arial, Helvetica, sans-serif" font-size="18px" font-weight="normal" font-style="normal" dominant-baseline="middle" text-anchor="middle" transform="translate(32 32)">4</text></g><g transform="translate(251.89480054433216 0)"><ellipse cx="32" cy="32" rx="31" ry="31" fill="hsl(147, 60%, 80%)" stroke="black" stroke-width="2"/><text x="0" y="0" fill="black" font-family="Arial, Helvetica, sans-serif" font-size="18px" font-weight="normal" font-style="normal" dominant-baseline="middle" text-anchor="middle" transform="translate(32 32)">3</text></g><g transform="translate(157.2632003628881 0)"><ellipse cx="32" cy="32" rx="31" ry="31" fill="hsl(206, 60%, 80%)" stroke="black" stroke-width="2"/><text x="0" y="0" fill="black" font-family="Arial, Helvetica, sans-serif" font-size="18px" font-weight="normal" font-style="normal" dominant-baseline="middle" text-anchor="middle" transform="translate(32 32)">2</text></g><g transform="translate(62.63160018144406 0)"><ellipse cx="32" cy="32" rx="31" ry="31" fill="hsl(35, 60%, 80%)" stroke="black" stroke-width="2"/><text x="0" y="0" fill="black" font-family="Arial, Helvetica, sans-serif" font-size="18px" font-weight="normal" font-style="normal" dominant-baseline="middle" text-anchor="middle" transform="translate(32 32)">1</text></g><g transform="translate(-32 0)"><ellipse cx="32" cy="32" rx="31" ry="31" fill="hsl(225, 60%, 80%)" stroke="black" stroke-width="2"/><text x="0" y="0" fill="black" font-family="Arial, Helvetica, sans-serif" font-size="18px" font-weight="normal" font-style="normal" dominant-baseline="middle" text-anchor="middle" transform="translate(32 32)">0</text></g></g><g transform="rotate(18 450 32) translate(450 0)"><g><line x1="0" y1="32" x2="316.3509338171841" y2="32" stroke="black" stroke-width="2"/><polyline points="306.3509338171841,26.226497308103742 316.3509338171841,32 306.3509338171841,37.773502691896255" fill="none" stroke="black" stroke-width="2" stroke-linecap="square"/></g><g transform="translate(251.3509338171841 0)"><line x1="0" y1="7" x2="0" y2="57" stroke="black" stroke-width="2"/></g><g transform="translate(157.2632003628881 0)"><ellipse cx="32" cy="32" rx="31" ry="31" fill="hsl(206, 60%, 80%)" stroke="black" stroke-width="2"/><text x="0" y="0" fill="black" font-family="Arial, Helvetica, sans-serif" font-size="18px" font-weight="normal" font-style="normal" dominant-baseline="middle" text-anchor="middle" transform="translate(32 32)">2</text></g><g transform="translate(62.63160018144406 0)"><ellipse cx="32" cy="32" rx="31" ry="31" fill="hsl(35, 60%, 80%)" stroke="black" stroke-width="2"/><text x="0" y="0" fill="black" font-family="Arial, Helvetica, sans-serif" font-size="18px" font-weight="normal" font-style="normal" dominant-baseline="middle" text-anchor="middle" transform="translate(32 32)">1</text></g><g transform="translate(-32 0)"><ellipse cx="32" cy="32" rx="31" ry="31" fill="hsl(225, 60%, 80%)" stroke="black" stroke-width="2"/><text x="0" y="0" fill="black" font-family="Arial, Helvetica, sans-serif" font-size="18px" font-weight="normal" font-style="normal" dominant-baseline="middle" text-anchor="middle" transform="translate(32 32)">0</text></g></g><g transform="rotate(18 120 32) translate(120 0)"><g><line x1="0" y1="32" x2="410.9825339986282" y2="32" stroke="black" stroke-width="2"/><polyline points="400.9825339986282,26.226497308103742 410.9825339986282,32 400.9825339986282,37.773502691896255" fill="none" stroke="black" stroke-width="2" stroke-linecap="square"/></g><g transform="translate(345.9825339986282 0)"><line x1="0" y1="7" x2="0" y2="57" stroke="black" stroke-width="2"/></g><g transform="translate(251.89480054433216 0)"><ellipse cx="32" cy="32" rx="31" ry="31" fill="hsl(147, 60%, 80%)" stroke="black" stroke-width="2"/><text x="0" y="0" fill="black" font-family="Arial, Helvetica, sans-serif" font-size="18px" font-weight="normal" font-style="normal" dominant-baseline="middle" text-anchor="middle" transform="translate(32 32)">3</text></g><g transform="translate(157.2632003628881 0)"><ellipse cx="32" cy="32" rx="31" ry="31" fill="hsl(206, 60%, 80%)" stroke="black" stroke-width="2"/><text x="0" y="0" fill="black" font-family="Arial, Helvetica, sans-serif" font-size="18px" font-weight="normal" font-style="normal" dominant-baseline="middle" text-anchor="middle" transform="translate(32 32)">2</text></g><g transform="translate(62.63160018144406 0)"><ellipse cx="32" cy="32" rx="31" ry="31" fill="hsl(35, 60%, 80%)" stroke="black" stroke-width="2"/><text x="0" y="0" fill="black" font-family="Arial, Helvetica, sans-serif" font-size="18px" font-weight="normal" font-style="normal" dominant-baseline="middle" text-anchor="middle" transform="translate(32 32)">1</text></g><g transform="translate(-32 0)"><ellipse cx="32" cy="32" rx="31" ry="31" fill="hsl(225, 60%, 80%)" stroke="black" stroke-width="2"/><text x="0" y="0" fill="black" font-family="Arial, Helvetica, sans-serif" font-size="18px" font-weight="normal" font-style="normal" dominant-baseline="middle" text-anchor="middle" transform="translate(32 32)">0</text></g></g></g></g><g transform="translate(0 402.21798332627725)"><rect x="1" y="11" width="1244.3094010767586" height="48" fill="white" stroke="black" stroke-width="2" rx="0"/><text x="623.1547005383793" y="35" fill="black" dominant-baseline="middle" text-anchor="middle" font-family="Arial, Helvetica, sans-serif" font-size="24px" font-weight="normal" font-style="normal" width="1246.3094010767586">concatAll</text></g><g transform="translate(0 492.21798332627725)"><text x="0" y="32" fill="black" font-family="Arial, Helvetica, sans-serif" font-size="18px" font-weight="normal" font-style="normal" dominant-baseline="middle"/><g transform="translate(100 0)"><g><line x1="0" y1="32" x2="1144" y2="32" stroke="black" stroke-width="2"/><polyline points="1134,26.226497308103742 1144,32 1134,37.773502691896255" fill="none" stroke="black" stroke-width="2" stroke-linecap="square"/></g><g transform="translate(1048 0)"><ellipse cx="32" cy="32" rx="31" ry="31" fill="hsl(117, 60%, 80%)" stroke="black" stroke-width="2"/><text x="0" y="0" fill="black" font-family="Arial, Helvetica, sans-serif" font-size="18px" font-weight="normal" font-style="normal" dominant-baseline="middle" text-anchor="middle" transform="translate(32 32)">4</text></g><g transform="translate(958 0)"><ellipse cx="32" cy="32" rx="31" ry="31" fill="hsl(147, 60%, 80%)" stroke="black" stroke-width="2"/><text x="0" y="0" fill="black" font-family="Arial, Helvetica, sans-serif" font-size="18px" font-weight="normal" font-style="normal" dominant-baseline="middle" text-anchor="middle" transform="translate(32 32)">3</text></g><g transform="translate(868 0)"><ellipse cx="32" cy="32" rx="31" ry="31" fill="hsl(206, 60%, 80%)" stroke="black" stroke-width="2"/><text x="0" y="0" fill="black" font-family="Arial, Helvetica, sans-serif" font-size="18px" font-weight="normal" font-style="normal" dominant-baseline="middle" text-anchor="middle" transform="translate(32 32)">2</text></g><g transform="translate(778 0)"><ellipse cx="32" cy="32" rx="31" ry="31" fill="hsl(35, 60%, 80%)" stroke="black" stroke-width="2"/><text x="0" y="0" fill="black" font-family="Arial, Helvetica, sans-serif" font-size="18px" font-weight="normal" font-style="normal" dominant-baseline="middle" text-anchor="middle" transform="translate(32 32)">1</text></g><g transform="translate(688 0)"><ellipse cx="32" cy="32" rx="31" ry="31" fill="hsl(225, 60%, 80%)" stroke="black" stroke-width="2"/><text x="0" y="0" fill="black" font-family="Arial, Helvetica, sans-serif" font-size="18px" font-weight="normal" font-style="normal" dominant-baseline="middle" text-anchor="middle" transform="translate(32 32)">0</text></g><g transform="translate(628 0)"><ellipse cx="32" cy="32" rx="31" ry="31" fill="hsl(206, 60%, 80%)" stroke="black" stroke-width="2"/><text x="0" y="0" fill="black" font-family="Arial, Helvetica, sans-serif" font-size="18px" font-weight="normal" font-style="normal" dominant-baseline="middle" text-anchor="middle" transform="translate(32 32)">2</text></g><g transform="translate(538 0)"><ellipse cx="32" cy="32" rx="31" ry="31" fill="hsl(35, 60%, 80%)" stroke="black" stroke-width="2"/><text x="0" y="0" fill="black" font-family="Arial, Helvetica, sans-serif" font-size="18px" font-weight="normal" font-style="normal" dominant-baseline="middle" text-anchor="middle" transform="translate(32 32)">1</text></g><g transform="translate(448 0)"><ellipse cx="32" cy="32" rx="31" ry="31" fill="hsl(225, 60%, 80%)" stroke="black" stroke-width="2"/><text x="0" y="0" fill="black" font-family="Arial, Helvetica, sans-serif" font-size="18px" font-weight="normal" font-style="normal" dominant-baseline="middle" text-anchor="middle" transform="translate(32 32)">0</text></g><g transform="translate(358 0)"><ellipse cx="32" cy="32" rx="31" ry="31" fill="hsl(147, 60%, 80%)" stroke="black" stroke-width="2"/><text x="0" y="0" fill="black" font-family="Arial, Helvetica, sans-serif" font-size="18px" font-weight="normal" font-style="normal" dominant-baseline="middle" text-anchor="middle" transform="translate(32 32)">3</text></g><g transform="translate(268 0)"><ellipse cx="32" cy="32" rx="31" ry="31" fill="hsl(206, 60%, 80%)" stroke="black" stroke-width="2"/><text x="0" y="0" fill="black" font-family="Arial, Helvetica, sans-serif" font-size="18px" font-weight="normal" font-style="normal" dominant-baseline="middle" text-anchor="middle" transform="translate(32 32)">2</text></g><g transform="translate(178 0)"><ellipse cx="32" cy="32" rx="31" ry="31" fill="hsl(35, 60%, 80%)" stroke="black" stroke-width="2"/><text x="0" y="0" fill="black" font-family="Arial, Helvetica, sans-serif" font-size="18px" font-weight="normal" font-style="normal" dominant-baseline="middle" text-anchor="middle" transform="translate(32 32)">1</text></g><g transform="translate(88 0)"><ellipse cx="32" cy="32" rx="31" ry="31" fill="hsl(225, 60%, 80%)" stroke="black" stroke-width="2"/><text x="0" y="0" fill="black" font-family="Arial, Helvetica, sans-serif" font-size="18px" font-weight="normal" font-style="normal" dominant-baseline="middle" text-anchor="middle" transform="translate(32 32)">0</text></g></g></g></g></svg>