<svg xmlns="http://www.w3.org/2000/svg" viewBox="0 0 696.3094010767585 720" width="696.3094010767585" height="720"><rect x="0" y="0" width="696.3094010767585" height="720" fill="white"/><g transform="translate(25 25)"><g><text x="0" y="32" fill="black" font-family="Arial, Helvetica, sans-serif" font-size="18px" font-weight="normal" font-style="normal" dominant-baseline="middle">interval(..)</text><g transform="translate(100 0)"><g><line x1="0" y1="32" x2="544" y2="32" stroke="black" stroke-width="2"/><polyline points="534,26.226497308103742 544,32 534,37.773502691896255" fill="none" stroke="black" stroke-width="2" stroke-linecap="square"/></g><g transform="translate(448 0)"><ellipse cx="32" cy="32" rx="31" ry="31" fill="hsl(231, 60%, 80%)" stroke="black" stroke-width="2"/><text x="0" y="0" fill="black" font-family="Arial, Helvetica, sans-serif" font-size="18px" font-weight="normal" font-style="normal" dominant-baseline="middle" text-anchor="middle" transform="translate(32 32)"/></g><g transform="translate(328 0)"><ellipse cx="32" cy="32" rx="31" ry="31" fill="hsl(231, 60%, 80%)" stroke="black" stroke-width="2"/><text x="0" y="0" fill="black" font-family="Arial, Helvetica, sans-serif" font-size="18px" font-weight="normal" font-style="normal" dominant-baseline="middle" text-anchor="middle" transform="translate(32 32)"/></g><g transform="translate(208 0)"><ellipse cx="32" cy="32" rx="31" ry="31" fill="hsl(231, 60%, 80%)" stroke="black" stroke-width="2"/><text x="0" y="0" fill="black" font-family="Arial, Helvetica, sans-serif" font-size="18px" font-weight="normal" font-style="normal" dominant-baseline="middle" text-anchor="middle" transform="translate(32 32)"/></g><g transform="translate(88 0)"><ellipse cx="32" cy="32" rx="31" ry="31" fill="hsl(231, 60%, 80%)" stroke="black" stroke-width="2"/><text x="0" y="0" fill="black" font-family="Arial, Helvetica, sans-serif" font-size="18px" font-weight="normal" font-style="normal" dominant-baseline="middle" text-anchor="middle" transform="translate(32 32)"/></g></g></g><g transform="translate(0 84)"><text x="0" y="32" fill="black" font-family="Arial, Helvetica, sans-serif" font-size="18px" font-weight="normal" font-style="normal" dominant-baseline="middle">parada$</text><g transform="translate(100 0)"><g><line x1="0" y1="32" x2="484" y2="32" stroke="black" stroke-width="2"/><polyline points="474,26.226497308103742 484,32 474,37.773502691896255" fill="none" stroke="black" stroke-width="2" stroke-linecap="square"/></g><g transform="translate(388 0)"><ellipse cx="32" cy="32" rx="31" ry="31" fill="hsl(333, 60%, 80%)" stroke="black" stroke-width="2"/><text x="0" y="0" fill="black" font-family="Arial, Helvetica, sans-serif" font-size="18px" font-weight="normal" font-style="normal" dominant-baseline="middle" text-anchor="middle" transform="translate(32 32)">""</text></g></g></g><g transform="translate(0 168)"><rect x="1" y="11" width="644.3094010767585" height="48" fill="white" stroke="black" stroke-width="2" rx="0"/><text x="323.15470053837925" y="35" fill="black" dominant-baseline="middle" text-anchor="middle" font-family="Arial, Helvetica, sans-serif" font-size="24px" font-weight="normal" font-style="normal" width="646.3094010767585">takeUntil</text></g><g transform="translate(0 258)"><text x="0" y="32" fill="black" font-family="Arial, Helvetica, sans-serif" font-size="18px" font-weight="normal" font-style="normal" dominant-baseline="middle"/><g transform="translate(100 0)"><g><line x1="0" y1="32" x2="484" y2="32" stroke="black" stroke-width="2"/><polyline points="474,26.226497308103742 484,32 474,37.773502691896255" fill="none" stroke="black" stroke-width="2" stroke-linecap="square"/></g><g transform="translate(419 0)"><line x1="0" y1="7" x2="0" y2="57" stroke="black" stroke-width="2"/></g><g transform="translate(328 0)"><ellipse cx="32" cy="32" rx="31" ry="31" fill="hsl(231, 60%, 80%)" stroke="black" stroke-width="2"/><text x="0" y="0" fill="black" font-family="Arial, Helvetica, sans-serif" font-size="18px" font-weight="normal" font-style="normal" dominant-baseline="middle" text-anchor="middle" transform="translate(32 32)"/></g><g transform="translate(208 0)"><ellipse cx="32" cy="32" rx="31" ry="31" fill="hsl(231, 60%, 80%)" stroke="black" stroke-width="2"/><text x="0" y="0" fill="black" font-family="Arial, Helvetica, sans-serif" font-size="18px" font-weight="normal" font-style="normal" dominant-baseline="middle" text-anchor="middle" transform="translate(32 32)"/></g><g transform="translate(88 0)"><ellipse cx="32" cy="32" rx="31" ry="31" fill="hsl(231, 60%, 80%)" stroke="black" stroke-width="2"/><text x="0" y="0" fill="black" font-family="Arial, Helvetica, sans-serif" font-size="18px" font-weight="normal" font-style="normal" dominant-baseline="middle" text-anchor="middle" transform="translate(32 32)"/></g></g></g><g transform="translate(0 342)"><rect x="1" y="11" width="644.3094010767585" height="48" fill="white" stroke="black" stroke-width="2" rx="0"/><text x="323.15470053837925" y="35" fill="black" dominant-baseline="middle" text-anchor="middle" font-family="Arial, Helvetica, sans-serif" font-size="24px" font-weight="normal" font-style="normal" width="646.3094010767585">scan(ac =&gt; ac + 1, 0)</text></g><g transform="translate(0 432)"><text x="0" y="32" fill="black" font-family="Arial, Helvetica, sans-serif" font-size="18px" font-weight="normal" font-style="normal" dominant-baseline="middle"/><g transform="translate(100 0)"><g><line x1="0" y1="32" x2="484" y2="32" stroke="black" stroke-width="2"/><polyline points="474,26.226497308103742 484,32 474,37.773502691896255" fill="none" stroke="black" stroke-width="2" stroke-linecap="square"/></g><g transform="translate(419 0)"><line x1="0" y1="7" x2="0" y2="57" stroke="black" stroke-width="2"/></g><g transform="translate(328 0)"><ellipse cx="32" cy="32" rx="31" ry="31" fill="hsl(147, 60%, 80%)" stroke="black" stroke-width="2"/><text x="0" y="0" fill="black" font-family="Arial, Helvetica, sans-serif" font-size="18px" font-weight="normal" font-style="normal" dominant-baseline="middle" text-anchor="middle" transform="translate(32 32)">3</text></g><g transform="translate(208 0)"><ellipse cx="32" cy="32" rx="31" ry="31" fill="hsl(206, 60%, 80%)" stroke="black" stroke-width="2"/><text x="0" y="0" fill="black" font-family="Arial, Helvetica, sans-serif" font-size="18px" font-weight="normal" font-style="normal" dominant-baseline="middle" text-anchor="middle" transform="translate(32 32)">2</text></g><g transform="translate(88 0)"><ellipse cx="32" cy="32" rx="31" ry="31" fill="hsl(35, 60%, 80%)" stroke="black" stroke-width="2"/><text x="0" y="0" fill="black" font-family="Arial, Helvetica, sans-serif" font-size="18px" font-weight="normal" font-style="normal" dominant-baseline="middle" text-anchor="middle" transform="translate(32 32)">1</text></g></g></g><g transform="translate(0 516)"><rect x="1" y="11" width="644.3094010767585" height="48" fill="white" stroke="black" stroke-width="2" rx="0"/><text x="323.15470053837925" y="35" fill="black" dominant-baseline="middle" text-anchor="middle" font-family="Arial, Helvetica, sans-serif" font-size="24px" font-weight="normal" font-style="normal" width="646.3094010767585">startWith(0)</text></g><g transform="translate(0 606)"><text x="0" y="32" fill="black" font-family="Arial, Helvetica, sans-serif" font-size="18px" font-weight="normal" font-style="normal" dominant-baseline="middle"/><g transform="translate(100 0)"><g><line x1="0" y1="32" x2="484" y2="32" stroke="black" stroke-width="2"/><polyline points="474,26.226497308103742 484,32 474,37.773502691896255" fill="none" stroke="black" stroke-width="2" stroke-linecap="square"/></g><g transform="translate(419 0)"><line x1="0" y1="7" x2="0" y2="57" stroke="black" stroke-width="2"/></g><g transform="translate(328 0)"><ellipse cx="32" cy="32" rx="31" ry="31" fill="hsl(147, 60%, 80%)" stroke="black" stroke-width="2"/><text x="0" y="0" fill="black" font-family="Arial, Helvetica, sans-serif" font-size="18px" font-weight="normal" font-style="normal" dominant-baseline="middle" text-anchor="middle" transform="translate(32 32)">3</text></g><g transform="translate(208 0)"><ellipse cx="32" cy="32" rx="31" ry="31" fill="hsl(206, 60%, 80%)" stroke="black" stroke-width="2"/><text x="0" y="0" fill="black" font-family="Arial, Helvetica, sans-serif" font-size="18px" font-weight="normal" font-style="normal" dominant-baseline="middle" text-anchor="middle" transform="translate(32 32)">2</text></g><g transform="translate(88 0)"><ellipse cx="32" cy="32" rx="31" ry="31" fill="hsl(35, 60%, 80%)" stroke="black" stroke-width="2"/><text x="0" y="0" fill="black" font-family="Arial, Helvetica, sans-serif" font-size="18px" font-weight="normal" font-style="normal" dominant-baseline="middle" text-anchor="middle" transform="translate(32 32)">1</text></g><g transform="translate(-32 0)"><ellipse cx="32" cy="32" rx="31" ry="31" fill="hsl(225, 60%, 80%)" stroke="black" stroke-width="2"/><text x="0" y="0" fill="black" font-family="Arial, Helvetica, sans-serif" font-size="18px" font-weight="normal" font-style="normal" dominant-baseline="middle" text-anchor="middle" transform="translate(32 32)">0</text></g></g></g></g></svg>