<svg xmlns="http://www.w3.org/2000/svg" viewBox="0 0 562.3094010767585 490" width="562.3094010767585" height="490"><rect x="0" y="0" width="562.3094010767585" height="490" fill="white"/><g transform="translate(25 25)"><g><text x="0" y="25" fill="black" font-family="Arial, Helvetica, sans-serif" font-size="18px" font-weight="normal" font-style="normal" dominant-baseline="middle">ini$:</text><g transform="translate(100 0)"><g><line x1="0" y1="25" x2="290" y2="25" stroke="black" stroke-width="2"/><polyline points="280,19.226497308103742 290,25 280,30.773502691896258" fill="none" stroke="black" stroke-width="2" stroke-linecap="square"/></g><g transform="translate(220 0)"><ellipse cx="20" cy="25" rx="19" ry="19" fill="hsl(86, 60%, 80%)" stroke="black" stroke-width="2"/><text x="0" y="0" fill="black" font-family="Arial, Helvetica, sans-serif" font-size="18px" font-weight="normal" font-style="normal" dominant-baseline="middle" text-anchor="middle" transform="translate(20 25)">T</text></g><g transform="translate(70 0)"><ellipse cx="20" cy="25" rx="19" ry="19" fill="hsl(86, 60%, 80%)" stroke="black" stroke-width="2"/><text x="0" y="0" fill="black" font-family="Arial, Helvetica, sans-serif" font-size="18px" font-weight="normal" font-style="normal" dominant-baseline="middle" text-anchor="middle" transform="translate(20 25)">T</text></g></g></g><g transform="translate(0 70)"><text x="0" y="25" fill="black" font-family="Arial, Helvetica, sans-serif" font-size="18px" font-weight="normal" font-style="normal" dominant-baseline="middle">para$:</text><g transform="translate(100 0)"><g><line x1="0" y1="25" x2="410" y2="25" stroke="black" stroke-width="2"/><polyline points="400,19.226497308103742 410,25 400,30.773502691896258" fill="none" stroke="black" stroke-width="2" stroke-linecap="square"/></g><g transform="translate(340 0)"><ellipse cx="20" cy="25" rx="19" ry="19" fill="hsl(46, 60%, 80%)" stroke="black" stroke-width="2"/><text x="0" y="0" fill="black" font-family="Arial, Helvetica, sans-serif" font-size="18px" font-weight="normal" font-style="normal" dominant-baseline="middle" text-anchor="middle" transform="translate(20 25)">F</text></g><g transform="translate(160 0)"><ellipse cx="20" cy="25" rx="19" ry="19" fill="hsl(46, 60%, 80%)" stroke="black" stroke-width="2"/><text x="0" y="0" fill="black" font-family="Arial, Helvetica, sans-serif" font-size="18px" font-weight="normal" font-style="normal" dominant-baseline="middle" text-anchor="middle" transform="translate(20 25)">F</text></g></g></g><g transform="translate(0 140)"><rect x="1" y="11" width="510.3094010767585" height="48" fill="white" stroke="black" stroke-width="2" rx="0"/><text x="256.15470053837925" y="35" fill="black" dominant-baseline="middle" text-anchor="middle" font-family="Arial, Helvetica, sans-serif" font-size="24px" font-weight="normal" font-style="normal" width="512.3094010767585">merge(ini$, para$)</text></g><g transform="translate(0 230)"><text x="0" y="25" fill="black" font-family="Arial, Helvetica, sans-serif" font-size="18px" font-weight="normal" font-style="normal" dominant-baseline="middle"/><g transform="translate(100 0)"><g><line x1="0" y1="25" x2="410" y2="25" stroke="black" stroke-width="2"/><polyline points="400,19.226497308103742 410,25 400,30.773502691896258" fill="none" stroke="black" stroke-width="2" stroke-linecap="square"/></g><g transform="translate(340 0)"><ellipse cx="20" cy="25" rx="19" ry="19" fill="hsl(46, 60%, 80%)" stroke="black" stroke-width="2"/><text x="0" y="0" fill="black" font-family="Arial, Helvetica, sans-serif" font-size="18px" font-weight="normal" font-style="normal" dominant-baseline="middle" text-anchor="middle" transform="translate(20 25)">F</text></g><g transform="translate(220 0)"><ellipse cx="20" cy="25" rx="19" ry="19" fill="hsl(86, 60%, 80%)" stroke="black" stroke-width="2"/><text x="0" y="0" fill="black" font-family="Arial, Helvetica, sans-serif" font-size="18px" font-weight="normal" font-style="normal" dominant-baseline="middle" text-anchor="middle" transform="translate(20 25)">T</text></g><g transform="translate(160 0)"><ellipse cx="20" cy="25" rx="19" ry="19" fill="hsl(46, 60%, 80%)" stroke="black" stroke-width="2"/><text x="0" y="0" fill="black" font-family="Arial, Helvetica, sans-serif" font-size="18px" font-weight="normal" font-style="normal" dominant-baseline="middle" text-anchor="middle" transform="translate(20 25)">F</text></g><g transform="translate(70 0)"><ellipse cx="20" cy="25" rx="19" ry="19" fill="hsl(86, 60%, 80%)" stroke="black" stroke-width="2"/><text x="0" y="0" fill="black" font-family="Arial, Helvetica, sans-serif" font-size="18px" font-weight="normal" font-style="normal" dominant-baseline="middle" text-anchor="middle" transform="translate(20 25)">T</text></g></g></g><g transform="translate(0 300)"><rect x="1" y="11" width="510.3094010767585" height="48" fill="white" stroke="black" stroke-width="2" rx="0"/><text x="256.15470053837925" y="35" fill="black" dominant-baseline="middle" text-anchor="middle" font-family="Arial, Helvetica, sans-serif" font-size="24px" font-weight="normal" font-style="normal" width="512.3094010767585">startWith(false)</text></g><g transform="translate(0 390)"><text x="0" y="25" fill="black" font-family="Arial, Helvetica, sans-serif" font-size="18px" font-weight="normal" font-style="normal" dominant-baseline="middle">activo$:</text><g transform="translate(100 0)"><g><line x1="0" y1="25" x2="410" y2="25" stroke="black" stroke-width="2"/><polyline points="400,19.226497308103742 410,25 400,30.773502691896258" fill="none" stroke="black" stroke-width="2" stroke-linecap="square"/></g><g transform="translate(340 0)"><ellipse cx="20" cy="25" rx="19" ry="19" fill="hsl(46, 60%, 80%)" stroke="black" stroke-width="2"/><text x="0" y="0" fill="black" font-family="Arial, Helvetica, sans-serif" font-size="18px" font-weight="normal" font-style="normal" dominant-baseline="middle" text-anchor="middle" transform="translate(20 25)">F</text></g><g transform="translate(220 0)"><ellipse cx="20" cy="25" rx="19" ry="19" fill="hsl(86, 60%, 80%)" stroke="black" stroke-width="2"/><text x="0" y="0" fill="black" font-family="Arial, Helvetica, sans-serif" font-size="18px" font-weight="normal" font-style="normal" dominant-baseline="middle" text-anchor="middle" transform="translate(20 25)">T</text></g><g transform="translate(160 0)"><ellipse cx="20" cy="25" rx="19" ry="19" fill="hsl(46, 60%, 80%)" stroke="black" stroke-width="2"/><text x="0" y="0" fill="black" font-family="Arial, Helvetica, sans-serif" font-size="18px" font-weight="normal" font-style="normal" dominant-baseline="middle" text-anchor="middle" transform="translate(20 25)">F</text></g><g transform="translate(70 0)"><ellipse cx="20" cy="25" rx="19" ry="19" fill="hsl(86, 60%, 80%)" stroke="black" stroke-width="2"/><text x="0" y="0" fill="black" font-family="Arial, Helvetica, sans-serif" font-size="18px" font-weight="normal" font-style="normal" dominant-baseline="middle" text-anchor="middle" transform="translate(20 25)">T</text></g><g transform="translate(-20 0)"><ellipse cx="20" cy="25" rx="19" ry="19" fill="hsl(46, 60%, 80%)" stroke="black" stroke-width="2"/><text x="0" y="0" fill="black" font-family="Arial, Helvetica, sans-serif" font-size="18px" font-weight="normal" font-style="normal" dominant-baseline="middle" text-anchor="middle" transform="translate(20 25)">F</text></g></g></g></g></svg>