<svg xmlns="http://www.w3.org/2000/svg" viewBox="0 0 862.3094010767585 375.7670864267951" width="862.3094010767585" height="375.7670864267951"><rect x="0" y="0" width="862.3094010767585" height="375.7670864267951" fill="white"/><g transform="translate(25 25)"><g><g><line x1="0" y1="30" x2="810" y2="30" stroke="black" stroke-width="2"/><polyline points="800,24.226497308103742 810,30 800,35.773502691896255" fill="none" stroke="black" stroke-width="2" stroke-linecap="square"/></g><g transform="translate(749 0)"><line x1="0" y1="5" x2="0" y2="55" stroke="black" stroke-width="2"/></g><g transform="translate(480 0)"><ellipse cx="30" cy="30" rx="29" ry="29" fill="hsl(183, 60%, 80%)" stroke="black" stroke-width="2"/><text x="0" y="0" fill="black" font-family="Arial, Helvetica, sans-serif" font-size="18px" font-weight="normal" font-style="normal" dominant-baseline="middle" text-anchor="middle" transform="translate(30 30)">F3</text></g><g transform="translate(240 0)"><ellipse cx="30" cy="30" rx="29" ry="29" fill="hsl(18, 60%, 80%)" stroke="black" stroke-width="2"/><text x="0" y="0" fill="black" font-family="Arial, Helvetica, sans-serif" font-size="18px" font-weight="normal" font-style="normal" dominant-baseline="middle" text-anchor="middle" transform="translate(30 30)">F2</text></g><g transform="translate(30 0)"><ellipse cx="30" cy="30" rx="29" ry="29" fill="hsl(244, 60%, 80%)" stroke="black" stroke-width="2"/><text x="0" y="0" fill="black" font-family="Arial, Helvetica, sans-serif" font-size="18px" font-weight="normal" font-style="normal" dominant-baseline="middle" text-anchor="middle" transform="translate(30 30)">F1</text></g></g><g transform="translate(0 80)"><rect x="1" y="11" width="810.3094010767585" height="48" fill="white" stroke="black" stroke-width="2" rx="0"/><text x="406.15470053837925" y="35" fill="black" dominant-baseline="middle" text-anchor="middle" font-family="Arial, Helvetica, sans-serif" font-size="24px" font-weight="normal" font-style="normal" width="812.3094010767585">map(f =&gt; fromFile(f))</text></g><g transform="translate(0 170)"><g><line x1="0" y1="30" x2="810" y2="30" stroke="black" stroke-width="2"/><polyline points="800,24.226497308103742 810,30 800,35.773502691896255" fill="none" stroke="black" stroke-width="2" stroke-linecap="square"/></g><g transform="translate(749 0)"><line x1="0" y1="5" x2="0" y2="55" stroke="black" stroke-width="2"/></g><g transform="rotate(18 510 30) translate(510 0)"><g><line x1="0" y1="30" x2="280.8070670900361" y2="30" stroke="black" stroke-width="2"/><polyline points="270.8070670900361,24.226497308103742 280.8070670900361,30 270.8070670900361,35.773502691896255" fill="none" stroke="black" stroke-width="2" stroke-linecap="square"/></g><g transform="translate(190.80706709003613 0)"><ellipse cx="30" cy="30" rx="29" ry="29" fill="hsl(68, 60%, 80%)" stroke="black" stroke-width="2"/><text x="0" y="0" fill="black" font-family="Arial, Helvetica, sans-serif" font-size="18px" font-weight="normal" font-style="normal" dominant-baseline="middle" text-anchor="middle" transform="translate(30 30)">F3L3</text></g><g transform="translate(96.17546690859206 0)"><ellipse cx="30" cy="30" rx="29" ry="29" fill="hsl(96, 60%, 80%)" stroke="black" stroke-width="2"/><text x="0" y="0" fill="black" font-family="Arial, Helvetica, sans-serif" font-size="18px" font-weight="normal" font-style="normal" dominant-baseline="middle" text-anchor="middle" transform="translate(30 30)">F3L2</text></g><g transform="translate(1.5438667271480142 0)"><ellipse cx="30" cy="30" rx="29" ry="29" fill="hsl(230, 60%, 80%)" stroke="black" stroke-width="2"/><text x="0" y="0" fill="black" font-family="Arial, Helvetica, sans-serif" font-size="18px" font-weight="normal" font-style="normal" dominant-baseline="middle" text-anchor="middle" transform="translate(30 30)">F3L1</text></g></g><g transform="rotate(18 270 30) translate(270 0)"><g><line x1="0" y1="30" x2="249.2632003628881" y2="30" stroke="black" stroke-width="2"/><polyline points="239.2632003628881,24.226497308103742 249.2632003628881,30 239.2632003628881,35.773502691896255" fill="none" stroke="black" stroke-width="2" stroke-linecap="square"/></g><g transform="translate(159.2632003628881 0)"><ellipse cx="30" cy="30" rx="29" ry="29" fill="hsl(301, 60%, 80%)" stroke="black" stroke-width="2"/><text x="0" y="0" fill="black" font-family="Arial, Helvetica, sans-serif" font-size="18px" font-weight="normal" font-style="normal" dominant-baseline="middle" text-anchor="middle" transform="translate(30 30)">F2L2</text></g><g transform="translate(33.08773345429603 0)"><ellipse cx="30" cy="30" rx="29" ry="29" fill="hsl(341, 60%, 80%)" stroke="black" stroke-width="2"/><text x="0" y="0" fill="black" font-family="Arial, Helvetica, sans-serif" font-size="18px" font-weight="normal" font-style="normal" dominant-baseline="middle" text-anchor="middle" transform="translate(30 30)">F2L1</text></g></g><g transform="rotate(18 60 30) translate(60 0)"><g><line x1="0" y1="30" x2="312.3509338171841" y2="30" stroke="black" stroke-width="2"/><polyline points="302.3509338171841,24.226497308103742 312.3509338171841,30 302.3509338171841,35.773502691896255" fill="none" stroke="black" stroke-width="2" stroke-linecap="square"/></g><g transform="translate(222.3509338171841 0)"><ellipse cx="30" cy="30" rx="29" ry="29" fill="hsl(316, 60%, 80%)" stroke="black" stroke-width="2"/><text x="0" y="0" fill="black" font-family="Arial, Helvetica, sans-serif" font-size="18px" font-weight="normal" font-style="normal" dominant-baseline="middle" text-anchor="middle" transform="translate(30 30)">F1L3</text></g><g transform="translate(127.71933363574007 0)"><ellipse cx="30" cy="30" rx="29" ry="29" fill="hsl(168, 60%, 80%)" stroke="black" stroke-width="2"/><text x="0" y="0" fill="black" font-family="Arial, Helvetica, sans-serif" font-size="18px" font-weight="normal" font-style="normal" dominant-baseline="middle" text-anchor="middle" transform="translate(30 30)">F1L2</text></g><g transform="translate(1.5438667271480142 0)"><ellipse cx="30" cy="30" rx="29" ry="29" fill="hsl(224, 60%, 80%)" stroke="black" stroke-width="2"/><text x="0" y="0" fill="black" font-family="Arial, Helvetica, sans-serif" font-size="18px" font-weight="normal" font-style="normal" dominant-baseline="middle" text-anchor="middle" transform="translate(30 30)">F1L1</text></g></g></g></g></svg>