<svg xmlns="http://www.w3.org/2000/svg" viewBox="0 0 462.3094010767585 100" width="462.3094010767585" height="100"><rect x="0" y="0" width="462.3094010767585" height="100" fill="white"/><g transform="translate(25 25)"><g><g><line x1="0" y1="25" x2="410" y2="25" stroke="black" stroke-width="2"/><polyline points="400,19.226497308103742 410,25 400,30.773502691896258" fill="none" stroke="black" stroke-width="2" stroke-linecap="square"/></g><g transform="translate(335 0)"><ellipse cx="25" cy="25" rx="24" ry="24" fill="hsl(120, 60%, 80%)" stroke="black" stroke-width="2"/><text x="0" y="0" fill="black" font-family="Arial, Helvetica, sans-serif" font-size="18px" font-weight="normal" font-style="normal" dominant-baseline="middle" text-anchor="middle" transform="translate(25 25)">xs[5]</text></g><g transform="translate(275 0)"><ellipse cx="25" cy="25" rx="24" ry="24" fill="hsl(88, 60%, 80%)" stroke="black" stroke-width="2"/><text x="0" y="0" fill="black" font-family="Arial, Helvetica, sans-serif" font-size="18px" font-weight="normal" font-style="normal" dominant-baseline="middle" text-anchor="middle" transform="translate(25 25)">xs[4]</text></g><g transform="translate(215 0)"><ellipse cx="25" cy="25" rx="24" ry="24" fill="hsl(268, 60%, 80%)" stroke="black" stroke-width="2"/><text x="0" y="0" fill="black" font-family="Arial, Helvetica, sans-serif" font-size="18px" font-weight="normal" font-style="normal" dominant-baseline="middle" text-anchor="middle" transform="translate(25 25)">xs[3]</text></g><g transform="translate(155 0)"><ellipse cx="25" cy="25" rx="24" ry="24" fill="hsl(206, 60%, 80%)" stroke="black" stroke-width="2"/><text x="0" y="0" fill="black" font-family="Arial, Helvetica, sans-serif" font-size="18px" font-weight="normal" font-style="normal" dominant-baseline="middle" text-anchor="middle" transform="translate(25 25)">xs[2]</text></g><g transform="translate(95 0)"><ellipse cx="25" cy="25" rx="24" ry="24" fill="hsl(124, 60%, 80%)" stroke="black" stroke-width="2"/><text x="0" y="0" fill="black" font-family="Arial, Helvetica, sans-serif" font-size="18px" font-weight="normal" font-style="normal" dominant-baseline="middle" text-anchor="middle" transform="translate(25 25)">xs[1]</text></g><g transform="translate(35 0)"><ellipse cx="25" cy="25" rx="24" ry="24" fill="hsl(291, 60%, 80%)" stroke="black" stroke-width="2"/><text x="0" y="0" fill="black" font-family="Arial, Helvetica, sans-serif" font-size="18px" font-weight="normal" font-style="normal" dominant-baseline="middle" text-anchor="middle" transform="translate(25 25)">xs[0]</text></g></g></g></svg>