<svg xmlns="http://www.w3.org/2000/svg" viewBox="0 0 432.3094010767585 190" width="432.3094010767585" height="190"><rect x="0" y="0" width="432.3094010767585" height="190" fill="white"/><g transform="translate(25 25)"><g><rect x="1" y="11" width="380.3094010767585" height="48" fill="white" stroke="black" stroke-width="2" rx="0"/><text x="191.15470053837925" y="35" fill="black" dominant-baseline="middle" text-anchor="middle" font-family="Arial, Helvetica, sans-serif" font-size="24px" font-weight="normal" font-style="normal" width="382.3094010767585">interval(1000)</text></g><g transform="translate(0 90)"><g><line x1="0" y1="25" x2="380" y2="25" stroke="black" stroke-width="2"/><polyline points="370,19.226497308103742 380,25 370,30.773502691896258" fill="none" stroke="black" stroke-width="2" stroke-linecap="square"/></g><g transform="translate(310 0)"><ellipse cx="20" cy="25" rx="19" ry="19" fill="hsl(231, 60%, 80%)" stroke="black" stroke-width="2"/><text x="0" y="0" fill="black" font-family="Arial, Helvetica, sans-serif" font-size="18px" font-weight="normal" font-style="normal" dominant-baseline="middle" text-anchor="middle" transform="translate(20 25)"/></g><g transform="translate(220 0)"><ellipse cx="20" cy="25" rx="19" ry="19" fill="hsl(231, 60%, 80%)" stroke="black" stroke-width="2"/><text x="0" y="0" fill="black" font-family="Arial, Helvetica, sans-serif" font-size="18px" font-weight="normal" font-style="normal" dominant-baseline="middle" text-anchor="middle" transform="translate(20 25)"/></g><g transform="translate(130 0)"><ellipse cx="20" cy="25" rx="19" ry="19" fill="hsl(231, 60%, 80%)" stroke="black" stroke-width="2"/><text x="0" y="0" fill="black" font-family="Arial, Helvetica, sans-serif" font-size="18px" font-weight="normal" font-style="normal" dominant-baseline="middle" text-anchor="middle" transform="translate(20 25)"/></g><g transform="translate(40 0)"><ellipse cx="20" cy="25" rx="19" ry="19" fill="hsl(231, 60%, 80%)" stroke="black" stroke-width="2"/><text x="0" y="0" fill="black" font-family="Arial, Helvetica, sans-serif" font-size="18px" font-weight="normal" font-style="normal" dominant-baseline="middle" text-anchor="middle" transform="translate(20 25)"/></g></g></g></svg>