<svg xmlns="http://www.w3.org/2000/svg" viewBox="0 0 672.3094010767585 260" width="672.3094010767585" height="260"><rect x="0" y="0" width="672.3094010767585" height="260" fill="white"/><g transform="translate(25 25)"><g><g><line x1="0" y1="25" x2="620" y2="25" stroke="black" stroke-width="2"/><polyline points="610,19.226497308103742 620,25 610,30.773502691896258" fill="none" stroke="black" stroke-width="2" stroke-linecap="square"/></g><g transform="translate(569 0)"><line x1="0" y1="0" x2="0" y2="50" stroke="black" stroke-width="2"/></g><g transform="translate(430 0)"><ellipse cx="20" cy="25" rx="19" ry="19" fill="hsl(170, 60%, 80%)" stroke="black" stroke-width="2"/><text x="0" y="0" fill="black" font-family="Arial, Helvetica, sans-serif" font-size="18px" font-weight="normal" font-style="normal" dominant-baseline="middle" text-anchor="middle" transform="translate(20 25)">5</text></g><g transform="translate(370 0)"><ellipse cx="20" cy="25" rx="19" ry="19" fill="hsl(35, 60%, 80%)" stroke="black" stroke-width="2"/><text x="0" y="0" fill="black" font-family="Arial, Helvetica, sans-serif" font-size="18px" font-weight="normal" font-style="normal" dominant-baseline="middle" text-anchor="middle" transform="translate(20 25)">1</text></g><g transform="translate(190 0)"><ellipse cx="20" cy="25" rx="19" ry="19" fill="hsl(169, 60%, 80%)" stroke="black" stroke-width="2"/><text x="0" y="0" fill="black" font-family="Arial, Helvetica, sans-serif" font-size="18px" font-weight="normal" font-style="normal" dominant-baseline="middle" text-anchor="middle" transform="translate(20 25)">10</text></g><g transform="translate(40 0)"><ellipse cx="20" cy="25" rx="19" ry="19" fill="hsl(147, 60%, 80%)" stroke="black" stroke-width="2"/><text x="0" y="0" fill="black" font-family="Arial, Helvetica, sans-serif" font-size="18px" font-weight="normal" font-style="normal" dominant-baseline="middle" text-anchor="middle" transform="translate(20 25)">3</text></g></g><g transform="translate(0 70)"><rect x="1" y="11" width="620.3094010767585" height="48" fill="white" stroke="black" stroke-width="2" rx="0"/><text x="311.15470053837925" y="35" fill="black" dominant-baseline="middle" text-anchor="middle" font-family="Arial, Helvetica, sans-serif" font-size="24px" font-weight="normal" font-style="normal" width="622.3094010767585">map(x =&gt; x * 2)</text></g><g transform="translate(0 160)"><g><line x1="0" y1="25" x2="620" y2="25" stroke="black" stroke-width="2"/><polyline points="610,19.226497308103742 620,25 610,30.773502691896258" fill="none" stroke="black" stroke-width="2" stroke-linecap="square"/></g><g transform="translate(569 0)"><line x1="0" y1="0" x2="0" y2="50" stroke="black" stroke-width="2"/></g><g transform="translate(430 0)"><ellipse cx="20" cy="25" rx="19" ry="19" fill="hsl(169, 60%, 80%)" stroke="black" stroke-width="2"/><text x="0" y="0" fill="black" font-family="Arial, Helvetica, sans-serif" font-size="18px" font-weight="normal" font-style="normal" dominant-baseline="middle" text-anchor="middle" transform="translate(20 25)">10</text></g><g transform="translate(370 0)"><ellipse cx="20" cy="25" rx="19" ry="19" fill="hsl(206, 60%, 80%)" stroke="black" stroke-width="2"/><text x="0" y="0" fill="black" font-family="Arial, Helvetica, sans-serif" font-size="18px" font-weight="normal" font-style="normal" dominant-baseline="middle" text-anchor="middle" transform="translate(20 25)">2</text></g><g transform="translate(190 0)"><ellipse cx="20" cy="25" rx="19" ry="19" fill="hsl(60, 60%, 80%)" stroke="black" stroke-width="2"/><text x="0" y="0" fill="black" font-family="Arial, Helvetica, sans-serif" font-size="18px" font-weight="normal" font-style="normal" dominant-baseline="middle" text-anchor="middle" transform="translate(20 25)">20</text></g><g transform="translate(40 0)"><ellipse cx="20" cy="25" rx="19" ry="19" fill="hsl(306, 60%, 80%)" stroke="black" stroke-width="2"/><text x="0" y="0" fill="black" font-family="Arial, Helvetica, sans-serif" font-size="18px" font-weight="normal" font-style="normal" dominant-baseline="middle" text-anchor="middle" transform="translate(20 25)">6</text></g></g></g></svg>