<svg xmlns="http://www.w3.org/2000/svg" viewBox="0 0 1012.3094010767585 414.7574499747439" width="1012.3094010767585" height="414.7574499747439"><rect x="0" y="0" width="1012.3094010767585" height="414.7574499747439" fill="white"/><g transform="translate(25 25)"><g><g><line x1="0" y1="30" x2="810" y2="30" stroke="black" stroke-width="2"/><polyline points="800,24.226497308103742 810,30 800,35.773502691896255" fill="none" stroke="black" stroke-width="2" stroke-linecap="square"/></g><g transform="translate(749 0)"><line x1="0" y1="5" x2="0" y2="55" stroke="black" stroke-width="2"/></g><g transform="rotate(18 510 30) translate(510 0)"><g><line x1="0" y1="30" x2="375.43866727148014" y2="30" stroke="black" stroke-width="2"/><polyline points="365.43866727148014,24.226497308103742 375.43866727148014,30 365.43866727148014,35.773502691896255" fill="none" stroke="black" stroke-width="2" stroke-linecap="square"/></g><g transform="translate(285.43866727148014 0)"><ellipse cx="30" cy="30" rx="29" ry="29" fill="hsl(68, 60%, 80%)" stroke="black" stroke-width="2"/><text x="0" y="0" fill="black" font-family="Arial, Helvetica, sans-serif" font-size="18px" font-weight="normal" font-style="normal" dominant-baseline="middle" text-anchor="middle" transform="translate(30 30)">F3L3</text></g><g transform="translate(190.80706709003613 0)"><ellipse cx="30" cy="30" rx="29" ry="29" fill="hsl(96, 60%, 80%)" stroke="black" stroke-width="2"/><text x="0" y="0" fill="black" font-family="Arial, Helvetica, sans-serif" font-size="18px" font-weight="normal" font-style="normal" dominant-baseline="middle" text-anchor="middle" transform="translate(30 30)">F3L2</text></g><g transform="translate(1.5438667271480142 0)"><ellipse cx="30" cy="30" rx="29" ry="29" fill="hsl(230, 60%, 80%)" stroke="black" stroke-width="2"/><text x="0" y="0" fill="black" font-family="Arial, Helvetica, sans-serif" font-size="18px" font-weight="normal" font-style="normal" dominant-baseline="middle" text-anchor="middle" transform="translate(30 30)">F3L1</text></g></g><g transform="rotate(18 270 30) translate(270 0)"><g><line x1="0" y1="30" x2="438.5264007257762" y2="30" stroke="black" stroke-width="2"/><polyline points="428.5264007257762,24.226497308103742 438.5264007257762,30 428.5264007257762,35.773502691896255" fill="none" stroke="black" stroke-width="2" stroke-linecap="square"/></g><g transform="translate(348.5264007257762 0)"><ellipse cx="30" cy="30" rx="29" ry="29" fill="hsl(301, 60%, 80%)" stroke="black" stroke-width="2"/><text x="0" y="0" fill="black" font-family="Arial, Helvetica, sans-serif" font-size="18px" font-weight="normal" font-style="normal" dominant-baseline="middle" text-anchor="middle" transform="translate(30 30)">F2L2</text></g><g transform="translate(33.08773345429603 0)"><ellipse cx="30" cy="30" rx="29" ry="29" fill="hsl(341, 60%, 80%)" stroke="black" stroke-width="2"/><text x="0" y="0" fill="black" font-family="Arial, Helvetica, sans-serif" font-size="18px" font-weight="normal" font-style="normal" dominant-baseline="middle" text-anchor="middle" transform="translate(30 30)">F2L1</text></g></g><g transform="rotate(18 60 30) translate(60 0)"><g><line x1="0" y1="30" x2="406.9825339986282" y2="30" stroke="black" stroke-width="2"/><polyline points="396.9825339986282,24.226497308103742 406.9825339986282,30 396.9825339986282,35.773502691896255" fill="none" stroke="black" stroke-width="2" stroke-linecap="square"/></g><g transform="translate(316.9825339986282 0)"><ellipse cx="30" cy="30" rx="29" ry="29" fill="hsl(316, 60%, 80%)" stroke="black" stroke-width="2"/><text x="0" y="0" fill="black" font-family="Arial, Helvetica, sans-serif" font-size="18px" font-weight="normal" font-style="normal" dominant-baseline="middle" text-anchor="middle" transform="translate(30 30)">F1L3</text></g><g transform="translate(127.71933363574007 0)"><ellipse cx="30" cy="30" rx="29" ry="29" fill="hsl(168, 60%, 80%)" stroke="black" stroke-width="2"/><text x="0" y="0" fill="black" font-family="Arial, Helvetica, sans-serif" font-size="18px" font-weight="normal" font-style="normal" dominant-baseline="middle" text-anchor="middle" transform="translate(30 30)">F1L2</text></g><g transform="translate(1.5438667271480142 0)"><ellipse cx="30" cy="30" rx="29" ry="29" fill="hsl(224, 60%, 80%)" stroke="black" stroke-width="2"/><text x="0" y="0" fill="black" font-family="Arial, Helvetica, sans-serif" font-size="18px" font-weight="normal" font-style="normal" dominant-baseline="middle" text-anchor="middle" transform="translate(30 30)">F1L1</text></g></g></g><g transform="translate(0 214.7574499747439)"><rect x="1" y="11" width="960.3094010767585" height="48" fill="white" stroke="black" stroke-width="2" rx="0"/><text x="481.15470053837925" y="35" fill="black" dominant-baseline="middle" text-anchor="middle" font-family="Arial, Helvetica, sans-serif" font-size="24px" font-weight="normal" font-style="normal" width="962.3094010767585">mergeAll()</text></g><g transform="translate(0 304.7574499747439)"><g><line x1="0" y1="30" x2="960" y2="30" stroke="black" stroke-width="2"/><polyline points="950,24.226497308103742 960,30 950,35.773502691896255" fill="none" stroke="black" stroke-width="2" stroke-linecap="square"/></g><g transform="translate(899 0)"><line x1="0" y1="5" x2="0" y2="55" stroke="black" stroke-width="2"/></g><g transform="translate(780 0)"><ellipse cx="30" cy="30" rx="29" ry="29" fill="hsl(68, 60%, 80%)" stroke="black" stroke-width="2"/><text x="0" y="0" fill="black" font-family="Arial, Helvetica, sans-serif" font-size="18px" font-weight="normal" font-style="normal" dominant-baseline="middle" text-anchor="middle" transform="translate(30 30)">F3L3</text></g><g transform="translate(690 0)"><ellipse cx="30" cy="30" rx="29" ry="29" fill="hsl(96, 60%, 80%)" stroke="black" stroke-width="2"/><text x="0" y="0" fill="black" font-family="Arial, Helvetica, sans-serif" font-size="18px" font-weight="normal" font-style="normal" dominant-baseline="middle" text-anchor="middle" transform="translate(30 30)">F3L2</text></g><g transform="translate(600 0)"><ellipse cx="30" cy="30" rx="29" ry="29" fill="hsl(301, 60%, 80%)" stroke="black" stroke-width="2"/><text x="0" y="0" fill="black" font-family="Arial, Helvetica, sans-serif" font-size="18px" font-weight="normal" font-style="normal" dominant-baseline="middle" text-anchor="middle" transform="translate(30 30)">F2L2</text></g><g transform="translate(510 0)"><ellipse cx="30" cy="30" rx="29" ry="29" fill="hsl(230, 60%, 80%)" stroke="black" stroke-width="2"/><text x="0" y="0" fill="black" font-family="Arial, Helvetica, sans-serif" font-size="18px" font-weight="normal" font-style="normal" dominant-baseline="middle" text-anchor="middle" transform="translate(30 30)">F3L1</text></g><g transform="translate(360 0)"><ellipse cx="30" cy="30" rx="29" ry="29" fill="hsl(316, 60%, 80%)" stroke="black" stroke-width="2"/><text x="0" y="0" fill="black" font-family="Arial, Helvetica, sans-serif" font-size="18px" font-weight="normal" font-style="normal" dominant-baseline="middle" text-anchor="middle" transform="translate(30 30)">F1L3</text></g><g transform="translate(300 0)"><ellipse cx="30" cy="30" rx="29" ry="29" fill="hsl(341, 60%, 80%)" stroke="black" stroke-width="2"/><text x="0" y="0" fill="black" font-family="Arial, Helvetica, sans-serif" font-size="18px" font-weight="normal" font-style="normal" dominant-baseline="middle" text-anchor="middle" transform="translate(30 30)">F2L1</text></g><g transform="translate(150 0)"><ellipse cx="30" cy="30" rx="29" ry="29" fill="hsl(168, 60%, 80%)" stroke="black" stroke-width="2"/><text x="0" y="0" fill="black" font-family="Arial, Helvetica, sans-serif" font-size="18px" font-weight="normal" font-style="normal" dominant-baseline="middle" text-anchor="middle" transform="translate(30 30)">F1L2</text></g><g transform="translate(30 0)"><ellipse cx="30" cy="30" rx="29" ry="29" fill="hsl(224, 60%, 80%)" stroke="black" stroke-width="2"/><text x="0" y="0" fill="black" font-family="Arial, Helvetica, sans-serif" font-size="18px" font-weight="normal" font-style="normal" dominant-baseline="middle" text-anchor="middle" transform="translate(30 30)">F1L1</text></g></g></g></svg>