<svg xmlns="http://www.w3.org/2000/svg" viewBox="0 0 542.3094010767585 260" width="542.3094010767585" height="260"><rect x="0" y="0" width="542.3094010767585" height="260" fill="white"/><g transform="translate(25 25) translate(20 0)"><g><g><line x1="0" y1="25" x2="470" y2="25" stroke="black" stroke-width="2"/><polyline points="460,19.226497308103742 470,25 460,30.773502691896258" fill="none" stroke="black" stroke-width="2" stroke-linecap="square"/></g><g transform="translate(419 0)"><line x1="0" y1="0" x2="0" y2="50" stroke="black" stroke-width="2"/></g><g transform="translate(310 0)"><ellipse cx="20" cy="25" rx="19" ry="19" fill="hsl(79, 60%, 80%)" stroke="black" stroke-width="2"/><text x="0" y="0" fill="black" font-family="Arial, Helvetica, sans-serif" font-size="18px" font-weight="normal" font-style="normal" dominant-baseline="middle" text-anchor="middle" transform="translate(20 25)">d</text></g><g transform="translate(220 0)"><ellipse cx="20" cy="25" rx="19" ry="19" fill="hsl(32, 60%, 80%)" stroke="black" stroke-width="2"/><text x="0" y="0" fill="black" font-family="Arial, Helvetica, sans-serif" font-size="18px" font-weight="normal" font-style="normal" dominant-baseline="middle" text-anchor="middle" transform="translate(20 25)">c</text></g><g transform="translate(130 0)"><ellipse cx="20" cy="25" rx="19" ry="19" fill="hsl(44, 60%, 80%)" stroke="black" stroke-width="2"/><text x="0" y="0" fill="black" font-family="Arial, Helvetica, sans-serif" font-size="18px" font-weight="normal" font-style="normal" dominant-baseline="middle" text-anchor="middle" transform="translate(20 25)">b</text></g><g transform="translate(70 0)"><ellipse cx="20" cy="25" rx="19" ry="19" fill="hsl(321, 60%, 80%)" stroke="black" stroke-width="2"/><text x="0" y="0" fill="black" font-family="Arial, Helvetica, sans-serif" font-size="18px" font-weight="normal" font-style="normal" dominant-baseline="middle" text-anchor="middle" transform="translate(20 25)">a</text></g></g><g transform="translate(0 70) translate(-20 0)"><rect x="1" y="11" width="490.3094010767585" height="48" fill="white" stroke="black" stroke-width="2" rx="0"/><text x="246.15470053837925" y="35" fill="black" dominant-baseline="middle" text-anchor="middle" font-family="Arial, Helvetica, sans-serif" font-size="24px" font-weight="normal" font-style="normal" width="492.3094010767585">startWith(x)</text></g><g transform="translate(0 160)"><g><line x1="0" y1="25" x2="470" y2="25" stroke="black" stroke-width="2"/><polyline points="460,19.226497308103742 470,25 460,30.773502691896258" fill="none" stroke="black" stroke-width="2" stroke-linecap="square"/></g><g transform="translate(419 0)"><line x1="0" y1="0" x2="0" y2="50" stroke="black" stroke-width="2"/></g><g transform="translate(310 0)"><ellipse cx="20" cy="25" rx="19" ry="19" fill="hsl(79, 60%, 80%)" stroke="black" stroke-width="2"/><text x="0" y="0" fill="black" font-family="Arial, Helvetica, sans-serif" font-size="18px" font-weight="normal" font-style="normal" dominant-baseline="middle" text-anchor="middle" transform="translate(20 25)">d</text></g><g transform="translate(220 0)"><ellipse cx="20" cy="25" rx="19" ry="19" fill="hsl(32, 60%, 80%)" stroke="black" stroke-width="2"/><text x="0" y="0" fill="black" font-family="Arial, Helvetica, sans-serif" font-size="18px" font-weight="normal" font-style="normal" dominant-baseline="middle" text-anchor="middle" transform="translate(20 25)">c</text></g><g transform="translate(130 0)"><ellipse cx="20" cy="25" rx="19" ry="19" fill="hsl(44, 60%, 80%)" stroke="black" stroke-width="2"/><text x="0" y="0" fill="black" font-family="Arial, Helvetica, sans-serif" font-size="18px" font-weight="normal" font-style="normal" dominant-baseline="middle" text-anchor="middle" transform="translate(20 25)">b</text></g><g transform="translate(70 0)"><ellipse cx="20" cy="25" rx="19" ry="19" fill="hsl(321, 60%, 80%)" stroke="black" stroke-width="2"/><text x="0" y="0" fill="black" font-family="Arial, Helvetica, sans-serif" font-size="18px" font-weight="normal" font-style="normal" dominant-baseline="middle" text-anchor="middle" transform="translate(20 25)">a</text></g><g transform="translate(-20 0)"><ellipse cx="20" cy="25" rx="19" ry="19" fill="hsl(244, 60%, 80%)" stroke="black" stroke-width="2"/><text x="0" y="0" fill="black" font-family="Arial, Helvetica, sans-serif" font-size="18px" font-weight="normal" font-style="normal" dominant-baseline="middle" text-anchor="middle" transform="translate(20 25)">x</text></g></g></g></svg>