<svg xmlns="http://www.w3.org/2000/svg" viewBox="0 0 742.3094010767585 330" width="742.3094010767585" height="330"><rect x="0" y="0" width="742.3094010767585" height="330" fill="white"/><g transform="translate(25 25)"><g><text x="0" y="25" fill="black" font-family="Arial, Helvetica, sans-serif" font-size="18px" font-weight="normal" font-style="normal" dominant-baseline="middle">o1</text><g transform="translate(100 0)"><g><line x1="0" y1="25" x2="530" y2="25" stroke="black" stroke-width="2"/><polyline points="520,19.226497308103742 530,25 520,30.773502691896258" fill="none" stroke="black" stroke-width="2" stroke-linecap="square"/></g><g transform="translate(460 0)"><ellipse cx="20" cy="25" rx="19" ry="19" fill="hsl(231, 60%, 80%)" stroke="black" stroke-width="2"/><text x="0" y="0" fill="black" font-family="Arial, Helvetica, sans-serif" font-size="18px" font-weight="normal" font-style="normal" dominant-baseline="middle" text-anchor="middle" transform="translate(20 25)"/></g><g transform="translate(340 0)"><ellipse cx="20" cy="25" rx="19" ry="19" fill="hsl(231, 60%, 80%)" stroke="black" stroke-width="2"/><text x="0" y="0" fill="black" font-family="Arial, Helvetica, sans-serif" font-size="18px" font-weight="normal" font-style="normal" dominant-baseline="middle" text-anchor="middle" transform="translate(20 25)"/></g><g transform="translate(220 0)"><ellipse cx="20" cy="25" rx="19" ry="19" fill="hsl(231, 60%, 80%)" stroke="black" stroke-width="2"/><text x="0" y="0" fill="black" font-family="Arial, Helvetica, sans-serif" font-size="18px" font-weight="normal" font-style="normal" dominant-baseline="middle" text-anchor="middle" transform="translate(20 25)"/></g><g transform="translate(100 0)"><ellipse cx="20" cy="25" rx="19" ry="19" fill="hsl(231, 60%, 80%)" stroke="black" stroke-width="2"/><text x="0" y="0" fill="black" font-family="Arial, Helvetica, sans-serif" font-size="18px" font-weight="normal" font-style="normal" dominant-baseline="middle" text-anchor="middle" transform="translate(20 25)"/></g></g></g><g transform="translate(0 70)"><text x="0" y="25" fill="black" font-family="Arial, Helvetica, sans-serif" font-size="18px" font-weight="normal" font-style="normal" dominant-baseline="middle">o2</text><g transform="translate(100 0)"><g><line x1="0" y1="25" x2="590" y2="25" stroke="black" stroke-width="2"/><polyline points="580,19.226497308103742 590,25 580,30.773502691896258" fill="none" stroke="black" stroke-width="2" stroke-linecap="square"/></g><g transform="translate(520 0)"><ellipse cx="20" cy="25" rx="19" ry="19" fill="hsl(44, 60%, 80%)" stroke="black" stroke-width="2"/><text x="0" y="0" fill="black" font-family="Arial, Helvetica, sans-serif" font-size="18px" font-weight="normal" font-style="normal" dominant-baseline="middle" text-anchor="middle" transform="translate(20 25)">b</text></g><g transform="translate(400 0)"><ellipse cx="20" cy="25" rx="19" ry="19" fill="hsl(321, 60%, 80%)" stroke="black" stroke-width="2"/><text x="0" y="0" fill="black" font-family="Arial, Helvetica, sans-serif" font-size="18px" font-weight="normal" font-style="normal" dominant-baseline="middle" text-anchor="middle" transform="translate(20 25)">a</text></g></g></g><g transform="translate(0 140)"><rect x="1" y="11" width="690.3094010767585" height="48" fill="white" stroke="black" stroke-width="2" rx="0"/><text x="346.15470053837925" y="35" fill="black" dominant-baseline="middle" text-anchor="middle" font-family="Arial, Helvetica, sans-serif" font-size="24px" font-weight="normal" font-style="normal" width="692.3094010767585">takeUntil</text></g><g transform="translate(0 230)"><text x="0" y="25" fill="black" font-family="Arial, Helvetica, sans-serif" font-size="18px" font-weight="normal" font-style="normal" dominant-baseline="middle"/><g transform="translate(100 0)"><g><line x1="0" y1="25" x2="470" y2="25" stroke="black" stroke-width="2"/><polyline points="460,19.226497308103742 470,25 460,30.773502691896258" fill="none" stroke="black" stroke-width="2" stroke-linecap="square"/></g><g transform="translate(419 0)"><line x1="0" y1="0" x2="0" y2="50" stroke="black" stroke-width="2"/></g><g transform="translate(340 0)"><ellipse cx="20" cy="25" rx="19" ry="19" fill="hsl(231, 60%, 80%)" stroke="black" stroke-width="2"/><text x="0" y="0" fill="black" font-family="Arial, Helvetica, sans-serif" font-size="18px" font-weight="normal" font-style="normal" dominant-baseline="middle" text-anchor="middle" transform="translate(20 25)"/></g><g transform="translate(220 0)"><ellipse cx="20" cy="25" rx="19" ry="19" fill="hsl(231, 60%, 80%)" stroke="black" stroke-width="2"/><text x="0" y="0" fill="black" font-family="Arial, Helvetica, sans-serif" font-size="18px" font-weight="normal" font-style="normal" dominant-baseline="middle" text-anchor="middle" transform="translate(20 25)"/></g><g transform="translate(100 0)"><ellipse cx="20" cy="25" rx="19" ry="19" fill="hsl(231, 60%, 80%)" stroke="black" stroke-width="2"/><text x="0" y="0" fill="black" font-family="Arial, Helvetica, sans-serif" font-size="18px" font-weight="normal" font-style="normal" dominant-baseline="middle" text-anchor="middle" transform="translate(20 25)"/></g></g></g></g></svg>