<svg xmlns="http://www.w3.org/2000/svg" viewBox="0 0 802.3094010767585 360" width="802.3094010767585" height="360"><rect x="0" y="0" width="802.3094010767585" height="360" fill="white"/><g transform="translate(25 25)"><g><g><line x1="0" y1="30" x2="750" y2="30" stroke="black" stroke-width="2"/><polyline points="740,24.226497308103742 750,30 740,35.773502691896255" fill="none" stroke="black" stroke-width="2" stroke-linecap="square"/></g><g transform="translate(689 0)"><line x1="0" y1="5" x2="0" y2="55" stroke="black" stroke-width="2"/></g><g transform="translate(540 0)"><ellipse cx="30" cy="30" rx="29" ry="29" fill="hsl(32, 60%, 80%)" stroke="black" stroke-width="2"/><text x="0" y="0" fill="black" font-family="Arial, Helvetica, sans-serif" font-size="18px" font-weight="normal" font-style="normal" dominant-baseline="middle" text-anchor="middle" transform="translate(30 30)">c</text></g><g transform="translate(270 0)"><ellipse cx="30" cy="30" rx="29" ry="29" fill="hsl(44, 60%, 80%)" stroke="black" stroke-width="2"/><text x="0" y="0" fill="black" font-family="Arial, Helvetica, sans-serif" font-size="18px" font-weight="normal" font-style="normal" dominant-baseline="middle" text-anchor="middle" transform="translate(30 30)">b</text></g><g transform="translate(120 0)"><ellipse cx="30" cy="30" rx="29" ry="29" fill="hsl(321, 60%, 80%)" stroke="black" stroke-width="2"/><text x="0" y="0" fill="black" font-family="Arial, Helvetica, sans-serif" font-size="18px" font-weight="normal" font-style="normal" dominant-baseline="middle" text-anchor="middle" transform="translate(30 30)">a</text></g></g><g transform="translate(0 80)"><g><line x1="0" y1="30" x2="750" y2="30" stroke="black" stroke-width="2"/><polyline points="740,24.226497308103742 750,30 740,35.773502691896255" fill="none" stroke="black" stroke-width="2" stroke-linecap="square"/></g><g transform="translate(689 0)"><line x1="0" y1="5" x2="0" y2="55" stroke="black" stroke-width="2"/></g><g transform="translate(450 0)"><ellipse cx="30" cy="30" rx="29" ry="29" fill="hsl(147, 60%, 80%)" stroke="black" stroke-width="2"/><text x="0" y="0" fill="black" font-family="Arial, Helvetica, sans-serif" font-size="18px" font-weight="normal" font-style="normal" dominant-baseline="middle" text-anchor="middle" transform="translate(30 30)">3</text></g><g transform="translate(360 0)"><ellipse cx="30" cy="30" rx="29" ry="29" fill="hsl(206, 60%, 80%)" stroke="black" stroke-width="2"/><text x="0" y="0" fill="black" font-family="Arial, Helvetica, sans-serif" font-size="18px" font-weight="normal" font-style="normal" dominant-baseline="middle" text-anchor="middle" transform="translate(30 30)">2</text></g><g transform="translate(60 0)"><ellipse cx="30" cy="30" rx="29" ry="29" fill="hsl(35, 60%, 80%)" stroke="black" stroke-width="2"/><text x="0" y="0" fill="black" font-family="Arial, Helvetica, sans-serif" font-size="18px" font-weight="normal" font-style="normal" dominant-baseline="middle" text-anchor="middle" transform="translate(30 30)">1</text></g></g><g transform="translate(0 160)"><rect x="1" y="11" width="750.3094010767585" height="48" fill="white" stroke="black" stroke-width="2" rx="0"/><text x="376.15470053837925" y="35" fill="black" dominant-baseline="middle" text-anchor="middle" font-family="Arial, Helvetica, sans-serif" font-size="24px" font-weight="normal" font-style="normal" width="752.3094010767585">withLatestFrom()</text></g><g transform="translate(0 250)"><g><line x1="0" y1="30" x2="750" y2="30" stroke="black" stroke-width="2"/><polyline points="740,24.226497308103742 750,30 740,35.773502691896255" fill="none" stroke="black" stroke-width="2" stroke-linecap="square"/></g><g transform="translate(689 0)"><line x1="0" y1="5" x2="0" y2="55" stroke="black" stroke-width="2"/></g><g transform="translate(540 0)"><ellipse cx="30" cy="30" rx="29" ry="29" fill="hsl(276, 60%, 80%)" stroke="black" stroke-width="2"/><text x="0" y="0" fill="black" font-family="Arial, Helvetica, sans-serif" font-size="18px" font-weight="normal" font-style="normal" dominant-baseline="middle" text-anchor="middle" transform="translate(30 30)">[c,3]</text></g><g transform="translate(270 0)"><ellipse cx="30" cy="30" rx="29" ry="29" fill="hsl(4, 60%, 80%)" stroke="black" stroke-width="2"/><text x="0" y="0" fill="black" font-family="Arial, Helvetica, sans-serif" font-size="18px" font-weight="normal" font-style="normal" dominant-baseline="middle" text-anchor="middle" transform="translate(30 30)">[b,1]</text></g><g transform="translate(120 0)"><ellipse cx="30" cy="30" rx="29" ry="29" fill="hsl(111, 60%, 80%)" stroke="black" stroke-width="2"/><text x="0" y="0" fill="black" font-family="Arial, Helvetica, sans-serif" font-size="18px" font-weight="normal" font-style="normal" dominant-baseline="middle" text-anchor="middle" transform="translate(30 30)">[a,1]</text></g></g></g></svg>