<svg xmlns="http://www.w3.org/2000/svg" viewBox="0 0 682.3094010767585 260" width="682.3094010767585" height="260"><rect x="0" y="0" width="682.3094010767585" height="260" fill="white"/><g transform="translate(25 25)"><g><text x="0" y="25" fill="black" font-family="Arial, Helvetica, sans-serif" font-size="18px" font-weight="normal" font-style="normal" dominant-baseline="middle">accion$</text><g transform="translate(100 0)"><g><line x1="0" y1="25" x2="530" y2="25" stroke="black" stroke-width="2"/><polyline points="520,19.226497308103742 530,25 520,30.773502691896258" fill="none" stroke="black" stroke-width="2" stroke-linecap="square"/></g><g transform="translate(460 0)"><ellipse cx="20" cy="25" rx="19" ry="19" fill="#FFD0D0" stroke="black" stroke-width="2"/><text x="0" y="0" fill="black" font-family="Arial, Helvetica, sans-serif" font-size="18px" font-weight="normal" font-style="normal" dominant-baseline="middle" text-anchor="middle" transform="translate(20 25)"/></g><g transform="translate(340 0)"><ellipse cx="20" cy="25" rx="19" ry="19" fill="#FFD0D0" stroke="black" stroke-width="2"/><text x="0" y="0" fill="black" font-family="Arial, Helvetica, sans-serif" font-size="18px" font-weight="normal" font-style="normal" dominant-baseline="middle" text-anchor="middle" transform="translate(20 25)"/></g><g transform="translate(220 0)"><ellipse cx="20" cy="25" rx="19" ry="19" fill="#FFD0D0" stroke="black" stroke-width="2"/><text x="0" y="0" fill="black" font-family="Arial, Helvetica, sans-serif" font-size="18px" font-weight="normal" font-style="normal" dominant-baseline="middle" text-anchor="middle" transform="translate(20 25)"/></g><g transform="translate(10 0)"><ellipse cx="20" cy="25" rx="19" ry="19" fill="#FFD0D0" stroke="black" stroke-width="2"/><text x="0" y="0" fill="black" font-family="Arial, Helvetica, sans-serif" font-size="18px" font-weight="normal" font-style="normal" dominant-baseline="middle" text-anchor="middle" transform="translate(20 25)"/></g></g></g><g transform="translate(0 70)"><rect x="1" y="11" width="630.3094010767585" height="48" fill="white" stroke="black" stroke-width="2" rx="0"/><text x="316.15470053837925" y="35" fill="black" dominant-baseline="middle" text-anchor="middle" font-family="Arial, Helvetica, sans-serif" font-size="24px" font-weight="normal" font-style="normal" width="632.3094010767585">model()</text></g><g transform="translate(0 160)"><text x="0" y="25" fill="black" font-family="Arial, Helvetica, sans-serif" font-size="18px" font-weight="normal" font-style="normal" dominant-baseline="middle">estado$</text><g transform="translate(100 0)"><g><line x1="0" y1="25" x2="500" y2="25" stroke="black" stroke-width="2"/><polyline points="490,19.226497308103742 500,25 490,30.773502691896258" fill="none" stroke="black" stroke-width="2" stroke-linecap="square"/></g><g transform="translate(430 0)"><ellipse cx="20" cy="25" rx="19" ry="19" fill="#D0FFFF" stroke="black" stroke-width="2"/><text x="0" y="0" fill="black" font-family="Arial, Helvetica, sans-serif" font-size="18px" font-weight="normal" font-style="normal" dominant-baseline="middle" text-anchor="middle" transform="translate(20 25)"/></g><g transform="translate(340 0)"><ellipse cx="20" cy="25" rx="19" ry="19" fill="#D0FFFF" stroke="black" stroke-width="2"/><text x="0" y="0" fill="black" font-family="Arial, Helvetica, sans-serif" font-size="18px" font-weight="normal" font-style="normal" dominant-baseline="middle" text-anchor="middle" transform="translate(20 25)"/></g><g transform="translate(160 0)"><ellipse cx="20" cy="25" rx="19" ry="19" fill="#D0FFFF" stroke="black" stroke-width="2"/><text x="0" y="0" fill="black" font-family="Arial, Helvetica, sans-serif" font-size="18px" font-weight="normal" font-style="normal" dominant-baseline="middle" text-anchor="middle" transform="translate(20 25)"/></g><g transform="translate(10 0)"><ellipse cx="20" cy="25" rx="19" ry="19" fill="#D0FFFF" stroke="black" stroke-width="2"/><text x="0" y="0" fill="black" font-family="Arial, Helvetica, sans-serif" font-size="18px" font-weight="normal" font-style="normal" dominant-baseline="middle" text-anchor="middle" transform="translate(20 25)"/></g></g></g></g></svg>