<svg xmlns="http://www.w3.org/2000/svg" viewBox="0 0 772.3094010767585 100" width="772.3094010767585" height="100"><rect x="0" y="0" width="772.3094010767585" height="100" fill="white"/><g transform="translate(25 25)"><g><text x="0" y="25" fill="black" font-family="Arial, Helvetica, sans-serif" font-size="18px" font-weight="normal" font-style="normal" dominant-baseline="middle">estado$</text><g transform="translate(100 0)"><g><line x1="0" y1="25" x2="620" y2="25" stroke="black" stroke-width="2"/><polyline points="610,19.226497308103742 620,25 610,30.773502691896258" fill="none" stroke="black" stroke-width="2" stroke-linecap="square"/></g><g transform="translate(550 0)"><ellipse cx="20" cy="25" rx="19" ry="19" fill="hsl(206, 60%, 80%)" stroke="black" stroke-width="2"/><text x="0" y="0" fill="black" font-family="Arial, Helvetica, sans-serif" font-size="18px" font-weight="normal" font-style="normal" dominant-baseline="middle" text-anchor="middle" transform="translate(20 25)">2</text></g><g transform="translate(430 0)"><ellipse cx="20" cy="25" rx="19" ry="19" fill="hsl(147, 60%, 80%)" stroke="black" stroke-width="2"/><text x="0" y="0" fill="black" font-family="Arial, Helvetica, sans-serif" font-size="18px" font-weight="normal" font-style="normal" dominant-baseline="middle" text-anchor="middle" transform="translate(20 25)">3</text></g><g transform="translate(340 0)"><ellipse cx="20" cy="25" rx="19" ry="19" fill="hsl(206, 60%, 80%)" stroke="black" stroke-width="2"/><text x="0" y="0" fill="black" font-family="Arial, Helvetica, sans-serif" font-size="18px" font-weight="normal" font-style="normal" dominant-baseline="middle" text-anchor="middle" transform="translate(20 25)">2</text></g><g transform="translate(160 0)"><ellipse cx="20" cy="25" rx="19" ry="19" fill="hsl(35, 60%, 80%)" stroke="black" stroke-width="2"/><text x="0" y="0" fill="black" font-family="Arial, Helvetica, sans-serif" font-size="18px" font-weight="normal" font-style="normal" dominant-baseline="middle" text-anchor="middle" transform="translate(20 25)">1</text></g><g transform="translate(-20 0)"><ellipse cx="20" cy="25" rx="19" ry="19" fill="hsl(225, 60%, 80%)" stroke="black" stroke-width="2"/><text x="0" y="0" fill="black" font-family="Arial, Helvetica, sans-serif" font-size="18px" font-weight="normal" font-style="normal" dominant-baseline="middle" text-anchor="middle" transform="translate(20 25)">0</text></g></g></g></g></svg>