<?xml version="1.0" encoding="UTF-8" standalone="no"?>
<!-- Created with Inkscape (http://www.inkscape.org/) -->

<svg
   width="225.36404mm"
   height="59.233856mm"
   viewBox="0 0 225.36404 59.233857"
   version="1.1"
   id="svg5"
   inkscape:version="1.2.1 (9c6d41e410, 2022-07-14)"
   sodipodi:docname="CicloServidorCategorias.svg"
   xml:space="preserve"
   xmlns:inkscape="http://www.inkscape.org/namespaces/inkscape"
   xmlns:sodipodi="http://sodipodi.sourceforge.net/DTD/sodipodi-0.dtd"
   xmlns:xlink="http://www.w3.org/1999/xlink"
   xmlns="http://www.w3.org/2000/svg"
   xmlns:svg="http://www.w3.org/2000/svg"><sodipodi:namedview
     id="namedview7"
     pagecolor="#ffffff"
     bordercolor="#000000"
     borderopacity="0.25"
     inkscape:showpageshadow="2"
     inkscape:pageopacity="0.0"
     inkscape:pagecheckerboard="0"
     inkscape:deskcolor="#d1d1d1"
     inkscape:document-units="mm"
     showgrid="false"
     inkscape:zoom="1.829812"
     inkscape:cx="361.78579"
     inkscape:cy="140.99809"
     inkscape:window-width="1920"
     inkscape:window-height="1011"
     inkscape:window-x="0"
     inkscape:window-y="0"
     inkscape:window-maximized="1"
     inkscape:current-layer="layer1" /><defs
     id="defs2"><marker
       style="overflow:visible"
       id="marker10426"
       refX="0"
       refY="0"
       orient="auto-start-reverse"
       inkscape:stockid="TriangleStart"
       markerWidth="5.3244081"
       markerHeight="6.155385"
       viewBox="0 0 5.3244081 6.1553851"
       inkscape:isstock="true"
       inkscape:collect="always"
       preserveAspectRatio="xMidYMid"><path
         transform="scale(0.5)"
         style="fill:context-stroke;fill-rule:evenodd;stroke:context-stroke;stroke-width:1pt"
         d="M 5.77,0 -2.88,5 V -5 Z"
         id="path10424" /></marker><marker
       style="overflow:visible"
       id="TriangleStart"
       refX="0"
       refY="0"
       orient="auto-start-reverse"
       inkscape:stockid="TriangleStart"
       markerWidth="5.3244081"
       markerHeight="6.155385"
       viewBox="0 0 5.3244081 6.1553851"
       inkscape:isstock="true"
       inkscape:collect="always"
       preserveAspectRatio="xMidYMid"><path
         transform="scale(0.5)"
         style="fill:context-stroke;fill-rule:evenodd;stroke:context-stroke;stroke-width:1pt"
         d="M 5.77,0 -2.88,5 V -5 Z"
         id="path135" /></marker><linearGradient
       id="linearGradient3432"
       y2="657.41998"
       xlink:href="#linearGradient3376"
       gradientUnits="userSpaceOnUse"
       y1="692.08002"
       x2="-80.302002"
       x1="-56.230999"
       inkscape:collect="always" /><radialGradient
       id="radialGradient3431"
       fx="-73.827003"
       gradientUnits="userSpaceOnUse"
       cy="664.96997"
       cx="-73.978996"
       r="22.583"
       inkscape:collect="always"><stop
         id="stop3291"
         style="stop-color:#fb0000"
         offset="0" /><stop
         id="stop3292"
         style="stop-color:#bc2323"
         offset="1" /></radialGradient><radialGradient
       id="radialGradient3429"
       gradientUnits="userSpaceOnUse"
       cy="663.60999"
       cx="-75.834"
       r="33.867001"
       inkscape:collect="always"><stop
         id="stop3500"
         style="stop-color:#adbe56"
         offset="0" /><stop
         id="stop3501"
         style="stop-color:#46630c"
         offset="1" /></radialGradient><linearGradient
       id="linearGradient3427"
       y2="696.04999"
       xlink:href="#linearGradient3363"
       gradientUnits="userSpaceOnUse"
       y1="652.67999"
       x2="-51.446999"
       x1="-83.203003"
       inkscape:collect="always" /><linearGradient
       id="linearGradient3424"
       y2="1394.1"
       xlink:href="#linearGradient3376"
       gradientUnits="userSpaceOnUse"
       y1="1418.3"
       gradientTransform="matrix(1.7485,0,0,0.57836,-3.4829,34.778)"
       x2="-77.882004"
       x1="-56.337002"
       inkscape:collect="always" /><linearGradient
       id="linearGradient3423"
       y2="1341.8"
       xlink:href="#linearGradient3363"
       gradientUnits="userSpaceOnUse"
       y1="1422"
       gradientTransform="matrix(1.7485,0,0,0.57836,-3.4829,34.778)"
       x2="-75.273003"
       x1="-54.402"
       inkscape:collect="always" /><linearGradient
       id="linearGradient3422"
       y2="1394.1"
       xlink:href="#linearGradient3376"
       gradientUnits="userSpaceOnUse"
       y1="1418.3"
       gradientTransform="matrix(1.7485,0,0,0.57836,-3.4828,-5.1545)"
       x2="-77.882004"
       x1="-56.337002"
       inkscape:collect="always" /><linearGradient
       id="linearGradient3421"
       y2="1341.8"
       xlink:href="#linearGradient3363"
       gradientUnits="userSpaceOnUse"
       y1="1422"
       gradientTransform="matrix(1.7485,0,0,0.57836,-3.4828,-5.1545)"
       x2="-75.273003"
       x1="-54.402"
       inkscape:collect="always" /><linearGradient
       id="linearGradient3420"
       y2="989.40997"
       xlink:href="#linearGradient3363"
       gradientUnits="userSpaceOnUse"
       y1="811.32001"
       gradientTransform="matrix(0.97978,0,0,1.0206,-382.74,317.96)"
       x2="-13.259"
       x1="-257.64001"
       inkscape:collect="always" /><linearGradient
       id="linearGradient3363"><stop
         id="stop3364"
         style="stop-color:#d9dbe6"
         offset="0" /><stop
         id="stop3365"
         style="stop-color:#b2b6df"
         offset=".036697" /><stop
         id="stop3366"
         style="stop-color:#787fb3"
         offset=".44083" /><stop
         id="stop3367"
         style="stop-color:#485093"
         offset=".94495" /><stop
         id="stop3368"
         style="stop-color:#2f3168"
         offset="1" /></linearGradient><linearGradient
       id="linearGradient3419"
       y2="709.28998"
       xlink:href="#linearGradient3363"
       gradientUnits="userSpaceOnUse"
       y1="557.40002"
       gradientTransform="matrix(0.85096,0,0,1.1751,-306.65,88.943)"
       x2="-80.057999"
       x1="-134.5"
       inkscape:collect="always" /><linearGradient
       id="linearGradient3376"><stop
         id="stop3377"
         style="stop-color:#ffffff"
         offset="0" /><stop
         id="stop3378"
         style="stop-color:#d7dcef"
         offset=".066731" /><stop
         id="stop3379"
         style="stop-color:#7884b3"
         offset=".70324" /><stop
         id="stop3380"
         style="stop-color:#2b3b61"
         offset=".96461" /><stop
         id="stop3381"
         style="stop-color:#213256"
         offset="1" /></linearGradient><linearGradient
       id="linearGradient3418"
       y2="730.78998"
       xlink:href="#linearGradient3376"
       gradientUnits="userSpaceOnUse"
       y1="569.57001"
       gradientTransform="matrix(0.86801,0,0,1.1521,-148.17,37.19)"
       x2="-91.830002"
       x1="-154.78999"
       inkscape:collect="always" /></defs><g
     inkscape:label="Capa 1"
     inkscape:groupmode="layer"
     id="layer1"
     transform="translate(-28.735269,-17.99387)"><path
       style="fill:none;stroke:#000000;stroke-width:0.265112;stroke-opacity:1"
       d="M 60.781443,22.24334 H 187.30452"
       id="path368" /><path
       style="fill:none;stroke:#000000;stroke-width:0.265112;stroke-opacity:1"
       d="M 60.781442,73.148117 H 187.30452"
       id="path368-0" /><circle
       style="fill:#ffd42a;fill-opacity:1;stroke:#000000;stroke-width:0.265112;stroke-opacity:1"
       id="path1084-9"
       cx="93.722145"
       cy="73.148117"
       r="3.0913062" /><circle
       style="fill:#ffd42a;fill-opacity:1;stroke:#000000;stroke-width:0.265112;stroke-opacity:1"
       id="path1084-3-3"
       cx="126.00182"
       cy="73.148117"
       r="3.0913062" /><circle
       style="fill:#55ff55;fill-opacity:1;stroke:#000000;stroke-width:0.265112;stroke-opacity:1"
       id="path1084-6-6"
       cx="142.16376"
       cy="73.015556"
       r="3.0913062" /><circle
       style="fill:#55ff55;fill-opacity:1;stroke:#000000;stroke-width:0.265112;stroke-opacity:1"
       id="path1084-7-0"
       cx="170.13411"
       cy="73.015556"
       r="3.0913062" /><g
       id="g5292"
       style="stroke:#b9b9b9;stroke-opacity:1"><path
         style="fill:#ffffff;fill-opacity:1;stroke:#b9b9b9;stroke-width:0.265;stroke-dasharray:none;stroke-opacity:1;marker-end:url(#TriangleStart)"
         d="M 73.174002,35.309643 V 60.724634"
         id="path3226" /><path
         style="fill:#ffffff;fill-opacity:1;stroke:#b9b9b9;stroke-width:0.265;stroke-dasharray:none;stroke-opacity:1;marker-end:url(#TriangleStart)"
         d="M 98.034891,35.309643 V 60.724631"
         id="path3226-8" /><path
         style="fill:#ffffff;fill-opacity:1;stroke:#b9b9b9;stroke-width:0.265;stroke-dasharray:none;stroke-opacity:1;marker-end:url(#TriangleStart)"
         d="M 122.89578,35.309643 V 60.724634"
         id="path3226-3" /><path
         style="fill:#ffffff;fill-opacity:1;stroke:#b9b9b9;stroke-width:0.265;stroke-dasharray:none;stroke-opacity:1;marker-end:url(#TriangleStart)"
         d="M 147.75667,35.309643 V 60.724638"
         id="path3226-2" /><path
         style="fill:#ffffff;fill-opacity:1;stroke:#b9b9b9;stroke-width:0.265;stroke-dasharray:none;stroke-opacity:1;marker-end:url(#TriangleStart)"
         d="M 172.61756,35.309643 V 60.724634"
         id="path3226-4" /></g><rect
       style="fill:#ffffff;fill-opacity:1;stroke:#000000;stroke-width:0.241055;stroke-opacity:1"
       id="rect1764"
       width="134.06728"
       height="11.279875"
       x="55.862144"
       y="41.011703" /><text
       xml:space="preserve"
       style="font-style:normal;font-variant:normal;font-weight:normal;font-stretch:normal;font-size:4.23333px;font-family:Raleway;-inkscape-font-specification:Raleway;fill:#ffffff;fill-opacity:1;stroke:#b9b9b9;stroke-width:0.264999;stroke-dasharray:none;stroke-opacity:1"
       x="43.271561"
       y="23.600916"
       id="text5424"><tspan
         sodipodi:role="line"
         style="font-style:normal;font-variant:normal;font-weight:bold;font-stretch:normal;font-size:4.23333px;font-family:monospace;-inkscape-font-specification:'monospace Bold';text-align:center;text-anchor:middle;fill:#000000;fill-opacity:1;stroke:none;stroke-width:0.265;stroke-opacity:1"
         x="43.271561"
         y="23.600916"
         id="tspan477">sources.HTTP</tspan></text><text
       xml:space="preserve"
       style="font-style:normal;font-variant:normal;font-weight:normal;font-stretch:normal;font-size:4.23333px;font-family:Raleway;-inkscape-font-specification:Raleway;fill:#ffffff;fill-opacity:1;stroke:#b9b9b9;stroke-width:0.264999;stroke-dasharray:none;stroke-opacity:1"
       x="44.134953"
       y="74.636925"
       id="text5424-7"><tspan
         sodipodi:role="line"
         style="font-style:normal;font-variant:normal;font-weight:bold;font-stretch:normal;font-size:4.23333px;font-family:monospace;-inkscape-font-specification:'monospace Bold';text-align:center;text-anchor:middle;fill:#000000;fill-opacity:1;stroke:none;stroke-width:0.265;stroke-opacity:1"
         x="44.134953"
         y="74.636925"
         id="tspan473">sinks.HTTP</tspan></text><circle
       style="fill:#ffdd55;fill-opacity:1;stroke:#000000;stroke-width:0.265112;stroke-opacity:1"
       id="path1084-9-3"
       cx="93.722145"
       cy="22.334206"
       r="3.0913062" /><circle
       style="fill:#ffdd55;fill-opacity:1;stroke:#000000;stroke-width:0.265112;stroke-opacity:1"
       id="path1084-3-3-6"
       cx="126.00182"
       cy="22.334206"
       r="3.0913062" /><circle
       style="fill:#55ff55;fill-opacity:1;stroke:#000000;stroke-width:0.265112;stroke-opacity:1"
       id="path1084-6-6-7"
       cx="142.16374"
       cy="22.201645"
       r="3.0913062" /><circle
       style="fill:#55ff55;fill-opacity:1;stroke:#000000;stroke-width:0.265112;stroke-opacity:1"
       id="path1084-7-0-5"
       cx="170.13409"
       cy="22.201645"
       r="3.0913062" /><text
       xml:space="preserve"
       style="font-size:5.64444px;font-family:monospace;-inkscape-font-specification:monospace;text-align:center;text-anchor:middle;fill:#ff9955;stroke:#000000;stroke-width:0.1;stroke-dasharray:0.1, 0.1"
       x="122.89578"
       y="48.017139"
       id="text578"><tspan
         sodipodi:role="line"
         id="tspan576"
         style="fill:#000000;fill-opacity:1;stroke:none;stroke-width:0.1"
         x="122.89578"
         y="48.017139">main()</tspan></text><g
       id="g3389"
       transform="matrix(0.16565988,0,0,0.16565988,273.40938,-64.293823)"><g
         id="g3233"
         transform="matrix(0.45302,0.021941,0,0.45982,-103.56,277.1)"><rect
           id="rect3234"
           style="fill:#000000;fill-opacity:0.040625"
           ry="26.292"
           transform="matrix(0.9034,-0.42879,0.81512,0.57929,0,0)"
           width="150.10001"
           y="785.48999"
           x="-1104.5"
           height="228.57001" /><path
           id="path3235"
           style="fill:#000000;fill-opacity:0.040625"
           d="m -233.63,868.73 c -16.12,1.89 -29.58,11.97 -44.36,17.93 -21.16,10.08 -42.39,20.08 -63.29,30.67 -9.93,6.02 -8.88,20.65 -0.05,27.13 49.25,35.62 99.13,70.54 148.83,105.64 17.39,9.7 39.68,8.5 56.58,-1.7 27.98,-13.3 56.191,-26.3 83.704,-40.4 9.75,-5.4 9.657,-19.66 1.376,-26.35 -20.133,-15.42 -41.409,-29.54 -61.96,-44.49 -29.86,-20.98 -59.42,-42.51 -89.62,-62.95 -9.45,-5.13 -20.62,-6.26 -31.21,-5.48 z" /><path
           id="path3236"
           style="fill:#000000;fill-opacity:0.040625"
           d="m -233.69,864.77 c -21.75,3.89 -40.34,16.81 -60.47,25.21 -17.41,8.67 -35.56,16.22 -52.06,26.42 -11.24,9.98 -5.23,29.15 7.5,34.88 48.62,34.68 97.16,69.62 146.38,103.32 20.2,10.6 44.86,6.2 63.71,-5.2 27.21,-13.2 55.089,-25.4 81.344,-40.3 11.28,-9.23 6.373,-28.46 -6.12,-34.19 -49.164,-35.31 -98.334,-70.74 -148.39,-104.71 -9.9,-4.79 -21.01,-6.02 -31.89,-5.43 z" /><path
           id="path3237"
           style="fill:#000000;fill-opacity:0.040625"
           d="m -233.73,860.84 c -26.39,5.59 -49.36,20.65 -73.9,31.18 -14.57,7.28 -30.13,13.47 -42.94,23.56 -11.41,12.85 -3.16,33.81 11.38,40.34 48.84,34.71 97.52,69.78 147.17,103.18 22.31,10.6 48.56,4.3 68.88,-7.8 26.91,-13.2 55.049,-24.7 80.163,-41.1 11.623,-12.11 4.466,-33.3 -9.939,-39.79 -49.584,-35.14 -98.484,-71.45 -149.37,-104.6 -9.89,-4.27 -20.76,-5.36 -31.44,-4.97 z" /><path
           id="path3238"
           style="fill:#000000;fill-opacity:0.040625"
           d="m -234.19,856.97 c -30.49,7.4 -57.51,24.11 -85.94,36.81 -12.29,6.36 -26.2,11.63 -35.35,22.29 -10.16,15.26 -0.53,36.62 15.08,43.92 49.14,34.71 97.78,70.21 148,103.31 24.24,10.6 52.07,3.1 73.84,-9.7 26.689,-12.9 54.089,-24.7 78.905,-41 12.653,-14.5 4.641,-38.5 -11.937,-46.16 -50.118,-35.4 -99.338,-72.32 -151.26,-104.97 -9.97,-3.84 -20.73,-4.85 -31.34,-4.5 z" /><path
           id="path3239"
           style="fill:#000000;fill-opacity:0.040625"
           d="m -234.64,853.12 c -34.21,9.24 -65.18,27.11 -97.03,42.17 -13.69,6.73 -30.74,15.47 -31.75,32.77 -0.97,16.3 10.34,30.63 24.29,37.78 48.92,34.36 96.95,70.06 147.44,101.96 26.26,10.3 55.33,1.2 78.57,-12.2 26.218,-13 53.529,-24.3 77.387,-41.4 12.705,-16.4 4.337,-42.27 -13.656,-51.05 -50.333,-35.71 -100.01,-72.46 -152.22,-105.41 -10.6,-3.73 -21.83,-5.06 -33.03,-4.62 z" /></g><ellipse
         id="path3241"
         style="fill:#000000"
         transform="matrix(0.41151,-0.039691,0,0.42998,-113.05,239.93)"
         cx="-333.53659"
         cy="1015.192"
         rx="21.57202"
         ry="15.930106" /><ellipse
         id="path3242"
         style="fill:#000000"
         transform="matrix(0.41151,0.0078639,0,0.42998,-44.246,309.77)"
         cx="-333.53659"
         cy="1015.192"
         rx="21.57202"
         ry="15.930106" /><ellipse
         id="path3243"
         style="fill:#000000"
         transform="matrix(0.41151,-0.039691,0,0.42998,0.48041,274.07)"
         cx="-333.53659"
         cy="1015.192"
         rx="21.57202"
         ry="15.930106" /><path
         id="path3244"
         style="fill:#000000;stroke:#000000;stroke-width:27.925;stroke-linecap:round;stroke-linejoin:round;stroke-miterlimit:0"
         transform="matrix(0.51438,0,0,0.51518,-93.07,213.13)"
         d="m -208.01,671.68 c -1.29,0.13 -2.5,0.49 -3.6,1.03 -4.32,2.17 -97,48.6 -99.56,49.88 -0.28,0.12 -0.55,0.26 -0.81,0.41 -0.01,0 -0.56,0.28 -0.56,0.28 0,0.02 0.03,0.1 0.03,0.12 -3.81,2.5 -6.19,7.67 -6.19,15.41 v 146.9 c 0,16.75 10.83,38.33 24.25,48.35 l 110.59,82.64 c 6.44,4.8 12.21,5.9 16.53,4.1 0.02,0 0.05,0.1 0.07,0.1 l 0.47,-0.2 0.06,-0.1 h 0.06 l 99.938,-49.98 c 4.382,-2.19 7.094,-7.75 7.094,-16.12 V 807.62 c 0,-16.75 -10.798,-38.32 -24.219,-48.34 l -110.59,-82.6 c -5.03,-3.76 -9.7,-5.36 -13.56,-5 z" /><path
         id="path3245"
         style="fill:#000000;stroke:url(#linearGradient3418);stroke-width:12.5;stroke-linecap:round;stroke-linejoin:round;stroke-miterlimit:0"
         transform="matrix(0.51438,0,0,0.51518,-93.07,213.13)"
         d="m -208.01,671.68 c -1.29,0.13 -2.5,0.49 -3.6,1.03 -4.32,2.17 -97,48.6 -99.56,49.88 -0.28,0.12 -0.55,0.26 -0.81,0.41 -0.01,0 -0.56,0.28 -0.56,0.28 0,0.02 0.03,0.1 0.03,0.12 -3.81,2.5 -6.19,7.67 -6.19,15.41 v 146.9 c 0,16.75 10.83,38.33 24.25,48.35 l 110.59,82.64 c 6.44,4.8 12.21,5.9 16.53,4.1 0.02,0 0.05,0.1 0.07,0.1 l 0.47,-0.2 0.06,-0.1 h 0.06 l 99.938,-49.98 c 4.382,-2.19 7.094,-7.75 7.094,-16.12 V 807.62 c 0,-16.75 -10.798,-38.32 -24.219,-48.34 l -110.59,-82.6 c -5.03,-3.76 -9.7,-5.36 -13.56,-5 z" /><path
         id="path3247"
         sodipodi:nodetypes="ccccsccsc"
         style="fill:url(#linearGradient3419);stroke-width:0;stroke-miterlimit:0"
         d="m -355.17,727.65 110.6,82.6 c 13.42,10.03 24.23,31.58 24.23,48.33 v 146.92 c 0,8.4 -2.7,13.9 -7.08,16.1 l -100.56,50.3 C -341.4,1061.8 -473.23,791 -473.23,774.25 c 0,0 96.54,-48.37 100.92,-50.57 4.37,-2.19 10.43,-1.04 17.14,3.97 z"
         transform="matrix(0.51438,0,0,0.51518,-10.409,186.85)" /><rect
         id="rect3248"
         style="fill:url(#linearGradient3420);stroke-width:0;stroke-miterlimit:0"
         ry="30.236"
         transform="matrix(0.41213,0.30827,0,0.51518,-10.409,186.85)"
         width="198.50999"
         y="1117.6"
         x="-598.33002"
         height="207.37" /><g
         id="g3249"
         style="opacity:0.52761"
         transform="matrix(0.087881,0.06194,0,0.09228,-180.67,682.69)"><rect
           id="rect3250"
           style="fill:#000000"
           ry="11.284"
           height="155.32001"
           width="22.568001"
           y="358.73999"
           x="-650.47998" /><rect
           id="rect3251"
           style="fill:#000000"
           ry="11.73"
           height="244.25999"
           width="22.568001"
           y="314.26999"
           x="-609.40997" /><rect
           id="rect3252"
           style="fill:#000000"
           ry="11.232"
           height="285.41"
           width="22.568001"
           y="293.69"
           x="-568.34003" /><rect
           id="rect3253"
           style="fill:#000000"
           ry="10.97"
           height="302.67001"
           width="25.223"
           y="285.06"
           x="-528.59998" /><rect
           id="rect3254"
           style="fill:#000000"
           ry="11.284"
           height="155.32001"
           width="22.568001"
           y="358.73999"
           x="-404.07001" /><rect
           id="rect3255"
           style="fill:#000000"
           ry="11.73"
           height="244.25999"
           width="22.568001"
           y="314.26999"
           x="-445.14001" /><rect
           id="rect3256"
           style="fill:#000000"
           ry="11.232"
           height="285.41"
           width="22.568001"
           y="293.69"
           x="-486.20999" /></g><rect
         id="rect3257"
         style="fill:url(#linearGradient3421);stroke:url(#linearGradient3422);stroke-width:3.9319;stroke-linecap:round;stroke-linejoin:round;stroke-miterlimit:0"
         ry="10.121"
         transform="matrix(0.46789,-0.21404,0,0.51518,-93.07,213.13)"
         width="91.999001"
         y="782.72998"
         x="-165.91"
         height="30.43" /><rect
         id="rect3258"
         style="fill:url(#linearGradient3423);stroke:url(#linearGradient3424);stroke-width:3.9319;stroke-linecap:round;stroke-linejoin:round;stroke-miterlimit:0"
         ry="10.121"
         transform="matrix(0.46789,-0.21404,0,0.51518,-93.07,213.13)"
         width="91.999001"
         y="822.65997"
         x="-165.91"
         height="30.43" /><circle
         id="path3259"
         style="fill:url(#linearGradient1700);stroke:url(#linearGradient1702);stroke-width:10.37;stroke-linecap:round;stroke-linejoin:round;stroke-miterlimit:0"
         transform="matrix(0.1311,-0.053535,0,0.11748,-120.77,599.42)"
         cx="-67.70295"
         cy="678.0047"
         r="26.550177" /><circle
         id="path3260"
         style="fill:url(#linearGradient3427);stroke:url(#linearGradient1704);stroke-width:10.37;stroke-linecap:round;stroke-linejoin:round;stroke-miterlimit:0"
         transform="matrix(0.1311,-0.053535,0,0.11748,-120.77,607.27)"
         cx="-67.70295"
         cy="678.0047"
         r="26.550177" /><circle
         id="path3261"
         style="fill:url(#radialGradient3429);stroke:url(#linearGradient1706);stroke-width:10.37;stroke-linecap:round;stroke-linejoin:round;stroke-miterlimit:0"
         transform="matrix(0.1311,-0.053535,0,0.11748,-120.77,615.12)"
         cx="-67.70295"
         cy="678.0047"
         r="26.550177" /><circle
         id="path3262"
         style="fill:url(#radialGradient3431);stroke:url(#linearGradient3432);stroke-width:10.37;stroke-linecap:round;stroke-linejoin:round;stroke-miterlimit:0"
         transform="matrix(0.1311,-0.053535,0,0.11748,-120.77,622.97)"
         cx="-67.70295"
         cy="678.0047"
         r="26.550177" /></g><text
       xml:space="preserve"
       style="font-style:normal;font-variant:normal;font-weight:normal;font-stretch:normal;font-size:4.23333px;font-family:Raleway;-inkscape-font-specification:Raleway;fill:#ffffff;fill-opacity:1;stroke:#b9b9b9;stroke-width:0.264999;stroke-dasharray:none;stroke-opacity:1"
       x="243.31042"
       y="67.425713"
       id="text5424-5"><tspan
         sodipodi:role="line"
         style="font-weight:bold;font-size:4.23333px;text-align:center;text-anchor:middle;fill:#000000;fill-opacity:1;stroke:none;stroke-width:0.265;stroke-opacity:1"
         x="243.31042"
         y="67.425713"
         id="tspan477-2">Servidor</tspan></text><path
       style="fill:none;fill-opacity:1;stroke:#6764d2;stroke-width:0.8;stroke-dasharray:none;stroke-dashoffset:0;stroke-opacity:1;marker-end:url(#TriangleStart)"
       d="m 200.82116,73.015561 c 18.16762,0 29.60066,-10.72016 29.60066,-10.72016"
       id="path2557" /><path
       style="fill:none;fill-opacity:1;stroke:#6764d2;stroke-width:0.8;stroke-dasharray:none;stroke-dashoffset:0;stroke-opacity:1;marker-end:url(#marker10426)"
       d="M 226.45605,31.341501 C 216.1419,17.849959 196.44221,21.966873 196.44221,21.966873"
       id="path10422" /><circle
       style="fill:#ffd42a;fill-opacity:1;stroke:#000000;stroke-width:0.265112;stroke-opacity:1"
       id="path1084-3-3-9"
       cx="157.74124"
       cy="73.015564"
       r="3.0913062" /><circle
       style="fill:#ffdd55;fill-opacity:1;stroke:#000000;stroke-width:0.265112;stroke-opacity:1"
       id="path1084-3-3-6-1"
       cx="157.74124"
       cy="22.201645"
       r="3.0913062" /></g></svg>
